<?xml version="1.0" encoding="iso-8859-1"?>
<!-- Generator: Adobe Illustrator 16.0.0, SVG Export Plug-In . SVG Version: 6.00 Build 0)  -->
<!DOCTYPE svg PUBLIC "-//W3C//DTD SVG 1.1//EN" "http://www.w3.org/Graphics/SVG/1.1/DTD/svg11.dtd">
<svg version="1.1" id="Ebene_1" xmlns="http://www.w3.org/2000/svg" xmlns:xlink="http://www.w3.org/1999/xlink" x="0px" y="0px"
	 width="141.73px" height="141.73px" viewBox="0 0 141.73 141.73" style="enable-background:new 0 0 141.73 141.73;"
	 xml:space="preserve" preserveAspectRatio="none">
<g>
	<path style="fill:#2A255E;" d="M34.714,140.998c-21.955,0-31.955-35.691-31.955-68.854c0-33.163,10-68.856,31.955-68.856
		c4.551,0,11.377,1.683,17.643,9.858C57.483,5.616,63.87,1.649,71.204,1.649c4.599,0,11.559,1.724,17.905,10.213
		c6.346-8.489,13.306-10.213,17.906-10.213c21.956,0,31.956,35.693,31.956,68.856c0,33.162-10,68.854-31.956,68.854
		c-4.601,0-11.561-1.725-17.906-10.213c-6.346,8.488-13.306,10.213-17.905,10.213c-4.552,0-11.378-1.682-17.644-9.857
		C48.434,137.031,42.046,140.998,34.714,140.998z" shape-rendering="crispEdges"/>
	<path style="fill:#2B255E;" d="M107.024,1.69c21.905,0,31.905,35.648,31.905,68.816c0,33.166-10,68.814-31.905,68.814
		c-4.618,0-11.578-1.775-17.911-10.308c-6.333,8.532-13.293,10.308-17.909,10.308c-4.571,0-11.397-1.734-17.651-9.958
		c-5.12,7.586-11.512,11.596-18.849,11.596C12.8,140.958,2.8,105.311,2.8,72.145c0-33.167,10-68.815,31.904-68.815
		c4.569,0,11.396,1.735,17.649,9.958C57.474,5.7,63.865,1.69,71.204,1.69c4.616,0,11.576,1.774,17.909,10.307
		C95.446,3.463,102.406,1.69,107.024,1.69z"/>
	<path style="fill:#2B265E;" d="M107.035,1.73c21.853,0,31.854,35.604,31.854,68.775c0,33.169-10.001,68.773-31.854,68.773
		c-4.637,0-11.596-1.824-17.917-10.4c-6.32,8.576-13.28,10.4-17.914,10.4c-4.589,0-11.417-1.785-17.659-10.056
		c-5.113,7.641-11.509,11.694-18.852,11.694c-21.852,0-31.853-35.603-31.853-68.772c0-33.17,10-68.774,31.853-68.774
		c4.588,0,11.417,1.786,17.658,10.057C57.464,5.784,63.86,1.73,71.204,1.73c4.634,0,11.594,1.824,17.914,10.4
		C95.439,3.553,102.398,1.73,107.035,1.73z"/>
	<path style="fill:#2C265E;" d="M107.044,1.77c21.803,0,31.804,35.56,31.804,68.735c0,33.173-10.001,68.732-31.804,68.732
		c-4.653,0-11.612-1.874-17.921-10.494c-6.308,8.62-13.268,10.494-17.919,10.494c-4.607,0-11.436-1.837-17.666-10.155
		c-5.106,7.697-11.507,11.795-18.854,11.795c-21.801,0-31.802-35.559-31.802-68.732c0-33.174,10.001-68.733,31.802-68.733
		c4.606,0,11.435,1.837,17.664,10.155C57.455,5.867,63.855,1.77,71.204,1.77c4.652,0,11.612,1.874,17.919,10.495
		C95.432,3.644,102.391,1.77,107.044,1.77z"/>
	<path style="fill:#2C265E;" d="M107.055,1.811c21.751,0,31.753,35.515,31.753,68.694c0,33.178-10.002,68.692-31.753,68.692
		c-4.671,0-11.63-1.924-17.926-10.588c-6.296,8.664-13.255,10.588-17.925,10.588c-4.625,0-11.456-1.889-17.673-10.255
		c-5.1,7.754-11.505,11.895-18.857,11.895c-21.75,0-31.751-35.514-31.751-68.691c0-33.179,10.001-68.694,31.751-68.694
		c4.625,0,11.455,1.89,17.672,10.255C57.446,5.951,63.851,1.811,71.204,1.811c4.67,0,11.629,1.924,17.925,10.588
		C95.425,3.734,102.384,1.811,107.055,1.811z"/>
	<path style="fill:#2D275D;" d="M107.064,1.852c21.699,0,31.702,35.47,31.702,68.653c0,33.181-10.003,68.651-31.702,68.651
		c-4.688,0-11.647-1.975-17.931-10.682c-6.283,8.707-13.242,10.682-17.93,10.682c-4.644,0-11.475-1.94-17.68-10.354
		c-5.094,7.811-11.503,11.994-18.86,11.994c-21.699,0-31.701-35.469-31.701-68.65c0-33.182,10.002-68.653,31.701-68.653
		c4.643,0,11.474,1.941,17.678,10.354C57.437,6.035,63.846,1.852,71.204,1.852c4.688,0,11.646,1.973,17.93,10.682
		C95.417,3.824,102.376,1.852,107.064,1.852z"/>
	<path style="fill:#2D275D;" d="M107.074,1.892c21.648,0,31.651,35.426,31.651,68.612c0,33.186-10.003,68.611-31.651,68.611
		c-4.706,0-11.665-2.024-17.936-10.775c-6.271,8.751-13.229,10.775-17.935,10.775c-4.663,0-11.494-1.992-17.687-10.453
		c-5.087,7.865-11.502,12.094-18.864,12.094c-21.646,0-31.649-35.425-31.649-68.61c0-33.186,10.003-68.612,31.649-68.612
		c4.662,0,11.494,1.993,17.687,10.454C57.427,6.119,63.841,1.892,71.204,1.892c4.705,0,11.663,2.023,17.935,10.775
		C95.409,3.915,102.368,1.892,107.074,1.892z"/>
	<path style="fill:#2E285D;" d="M107.085,1.932c21.597,0,31.601,35.382,31.601,68.572c0,33.189-10.004,68.57-31.601,68.57
		c-4.725,0-11.683-2.073-17.941-10.869c-6.258,8.796-13.217,10.869-17.939,10.869c-4.682,0-11.514-2.043-17.694-10.553
		c-5.081,7.923-11.5,12.193-18.867,12.193c-21.595,0-31.599-35.38-31.599-68.568c0-33.19,10.003-68.572,31.599-68.572
		c4.681,0,11.513,2.045,17.693,10.553C57.418,6.203,63.836,1.932,71.205,1.932c4.722,0,11.681,2.074,17.939,10.869
		C95.402,4.005,102.36,1.932,107.085,1.932z"/>
	<path style="fill:#2E285D;" d="M107.095,1.972c21.545,0,31.55,35.337,31.55,68.532c0,33.193-10.005,68.53-31.55,68.53
		c-4.741,0-11.7-2.125-17.946-10.964c-6.245,8.839-13.204,10.964-17.944,10.964c-4.7,0-11.534-2.096-17.702-10.652
		c-5.075,7.979-11.498,12.293-18.869,12.293c-21.544,0-31.548-35.336-31.548-68.528c0-33.194,10.003-68.531,31.548-68.531
		c4.699,0,11.532,2.097,17.701,10.652c5.075-7.981,11.497-12.295,18.87-12.295c4.74,0,11.699,2.123,17.944,10.963
		C95.395,4.095,102.354,1.972,107.095,1.972z"/>
	<path style="fill:#2E285D;" d="M107.105,2.013c21.493,0,31.498,35.292,31.498,68.491c0,33.197-10.005,68.489-31.498,68.489
		c-4.76,0-11.718-2.174-17.951-11.057c-6.233,8.883-13.191,11.057-17.95,11.057c-4.718,0-11.553-2.147-17.708-10.751
		c-5.068,8.034-11.496,12.393-18.872,12.393c-21.493,0-31.498-35.291-31.498-68.488s10.004-68.49,31.498-68.49
		c4.717,0,11.552,2.148,17.708,10.752C57.4,6.371,63.827,2.013,71.205,2.013c4.758,0,11.716,2.173,17.95,11.056
		C95.388,4.186,102.346,2.013,107.105,2.013z"/>
	<path style="fill:#2F295D;" d="M107.115,2.053c21.442,0,31.447,35.249,31.447,68.45c0,33.201-10.005,68.449-31.447,68.449
		c-4.777,0-11.735-2.224-17.956-11.15c-6.221,8.927-13.179,11.15-17.955,11.15c-4.737,0-11.572-2.199-17.716-10.851
		c-5.062,8.091-11.494,12.493-18.875,12.493c-21.442,0-31.447-35.247-31.447-68.448c0-33.202,10.005-68.45,31.447-68.45
		c4.735,0,11.571,2.2,17.715,10.851C57.391,6.455,63.822,2.053,71.205,2.053c4.776,0,11.734,2.223,17.955,11.15
		C95.38,4.276,102.338,2.053,107.115,2.053z"/>
	<path style="fill:#2F295D;" d="M107.124,2.094c21.392,0,31.397,35.203,31.397,68.41c0,33.205-10.006,68.408-31.397,68.408
		c-4.794,0-11.752-2.273-17.96-11.244c-6.209,8.971-13.166,11.244-17.959,11.244c-4.755,0-11.592-2.251-17.723-10.95
		c-5.055,8.147-11.492,12.593-18.878,12.593c-21.39,0-31.396-35.202-31.396-68.407S13.213,3.737,34.604,3.737
		c4.754,0,11.591,2.252,17.722,10.951C57.381,6.539,63.816,2.094,71.205,2.094c4.793,0,11.75,2.273,17.959,11.244
		C95.372,4.366,102.33,2.094,107.124,2.094z"/>
	<path style="fill:#302A5D;" d="M107.135,2.134c21.34,0,31.347,35.16,31.347,68.369c0,33.209-10.007,68.368-31.347,68.368
		c-4.813,0-11.77-2.324-17.966-11.338c-6.196,9.014-13.153,11.338-17.964,11.338c-4.774,0-11.611-2.303-17.73-11.05
		c-5.049,8.203-11.489,12.692-18.881,12.692c-21.338,0-31.345-35.157-31.345-68.366c0-33.209,10.006-68.369,31.345-68.369
		c4.773,0,11.61,2.303,17.729,11.049C57.372,6.623,63.812,2.134,71.205,2.134c4.811,0,11.768,2.323,17.964,11.338
		C95.365,4.457,102.322,2.134,107.135,2.134z"/>
	<path style="fill:#302A5C;" d="M107.145,2.174c21.289,0,31.296,35.115,31.296,68.329c0,33.213-10.007,68.326-31.296,68.326
		c-4.83,0-11.787-2.373-17.971-11.432c-6.184,9.059-13.141,11.432-17.969,11.432c-4.792,0-11.631-2.354-17.738-11.148
		c-5.042,8.26-11.487,12.792-18.883,12.792c-21.288,0-31.294-35.113-31.294-68.325c0-33.213,10.006-68.328,31.294-68.328
		c4.791,0,11.629,2.355,17.736,11.149C57.363,6.706,63.807,2.174,71.205,2.174c4.828,0,11.785,2.373,17.969,11.432
		C95.357,4.547,102.314,2.174,107.145,2.174z"/>
	<path style="fill:#302A5C;" d="M107.154,2.215c21.238,0,31.245,35.07,31.245,68.288c0,33.216-10.007,68.286-31.245,68.286
		c-4.847,0-11.804-2.424-17.975-11.525c-6.171,9.102-13.128,11.525-17.975,11.525c-4.811,0-11.649-2.406-17.745-11.248
		c-5.036,8.315-11.485,12.893-18.886,12.893c-21.236,0-31.243-35.069-31.243-68.285c0-33.218,10.007-68.288,31.243-68.288
		c4.809,0,11.648,2.407,17.744,11.249C57.354,6.791,63.803,2.215,71.205,2.215c4.847,0,11.804,2.423,17.975,11.525
		C95.351,4.637,102.308,2.215,107.154,2.215z"/>
	<path style="fill:#312B5C;" d="M107.165,2.255c21.186,0,31.193,35.025,31.193,68.247c0,33.22-10.008,68.246-31.193,68.246
		c-4.865,0-11.822-2.474-17.98-11.619c-6.159,9.146-13.115,11.619-17.979,11.619c-4.829,0-11.669-2.458-17.752-11.347
		c-5.03,8.372-11.483,12.991-18.89,12.991c-21.185,0-31.192-35.024-31.192-68.244c0-33.222,10.008-68.247,31.192-68.247
		c4.829,0,11.668,2.458,17.751,11.348c5.03-8.375,11.483-12.994,18.89-12.994c4.864,0,11.82,2.472,17.979,11.619
		C95.343,4.728,102.3,2.255,107.165,2.255z"/>
	<path style="fill:#312B5C;" d="M107.175,2.295c21.134,0,31.143,34.981,31.143,68.207c0,33.224-10.009,68.205-31.143,68.205
		c-4.883,0-11.84-2.523-17.985-11.713c-6.146,9.189-13.104,11.713-17.984,11.713c-4.848,0-11.689-2.51-17.759-11.446
		c-5.023,8.429-11.481,13.091-18.892,13.091c-21.134,0-31.142-34.979-31.142-68.204S13.42,3.941,34.554,3.941
		c4.846,0,11.688,2.511,17.758,11.447C57.335,6.958,63.793,2.295,71.205,2.295c4.881,0,11.838,2.522,17.984,11.713
		C95.335,4.817,102.292,2.295,107.175,2.295z"/>
	<path style="fill:#322B5C;" d="M107.186,2.336c21.083,0,31.092,34.937,31.092,68.166c0,33.229-10.009,68.164-31.092,68.164
		c-4.901,0-11.857-2.572-17.991-11.807c-6.133,9.234-13.09,11.807-17.989,11.807c-4.866,0-11.708-2.561-17.767-11.546
		c-5.017,8.485-11.479,13.191-18.895,13.191c-21.082,0-31.09-34.936-31.09-68.163c0-33.229,10.008-68.166,31.09-68.166
		c4.865,0,11.707,2.562,17.766,11.546C57.327,7.042,63.788,2.336,71.206,2.336c4.899,0,11.856,2.573,17.989,11.807
		C95.328,4.908,102.284,2.336,107.186,2.336z"/>
	<path style="fill:#322C5C;" d="M107.195,2.376c21.031,0,31.041,34.893,31.041,68.126c0,33.231-10.01,68.124-31.041,68.124
		c-4.919,0-11.875-2.624-17.996-11.901c-6.121,9.277-13.077,11.901-17.994,11.901c-4.884,0-11.728-2.613-17.774-11.646
		c-5.01,8.541-11.477,13.291-18.897,13.291c-21.031,0-31.04-34.892-31.04-68.123c0-33.232,10.009-68.125,31.04-68.125
		c4.883,0,11.726,2.614,17.772,11.645C57.317,7.126,63.783,2.376,71.206,2.376c4.917,0,11.873,2.623,17.994,11.9
		C95.32,4.999,102.276,2.376,107.195,2.376z"/>
	<path style="fill:#322C5C;" d="M107.204,2.417c20.98,0,30.991,34.848,30.991,68.084s-10.011,68.083-30.991,68.083
		c-4.936,0-11.892-2.673-18-11.994c-6.108,9.321-13.064,11.994-17.999,11.994c-4.903,0-11.747-2.664-17.781-11.744
		c-5.004,8.598-11.476,13.391-18.901,13.391c-20.979,0-30.989-34.846-30.989-68.082S13.544,4.064,34.523,4.064
		c4.902,0,11.746,2.666,17.78,11.745C57.308,7.21,63.778,2.417,71.206,2.417c4.934,0,11.89,2.672,17.999,11.994
		C95.313,5.088,102.269,2.417,107.204,2.417z"/>
	<path style="fill:#332D5B;" d="M107.215,2.457c20.93,0,30.94,34.803,30.94,68.044c0,33.24-10.011,68.042-30.94,68.042
		c-4.953,0-11.909-2.723-18.005-12.089c-6.097,9.366-13.053,12.089-18.004,12.089c-4.921,0-11.767-2.717-17.788-11.844
		c-4.997,8.653-11.473,13.49-18.904,13.49c-20.928,0-30.938-34.802-30.938-68.041c0-33.241,10.01-68.044,30.938-68.044
		c4.921,0,11.765,2.717,17.788,11.844C57.299,7.294,63.774,2.457,71.206,2.457c4.952,0,11.908,2.722,18.004,12.088
		C95.306,5.179,102.262,2.457,107.215,2.457z"/>
	<path style="fill:#332D5B;" d="M107.225,2.498c20.878,0,30.889,34.759,30.889,68.003c0,33.243-10.011,68.002-30.889,68.002
		c-4.971,0-11.927-2.772-18.01-12.182c-6.084,9.409-13.04,12.182-18.009,12.182c-4.94,0-11.786-2.769-17.795-11.943
		c-4.991,8.71-11.471,13.591-18.906,13.591c-20.877,0-30.888-34.758-30.888-68.001c0-33.244,10.011-68.003,30.888-68.003
		c4.938,0,11.784,2.769,17.794,11.944C57.29,7.378,63.769,2.498,71.206,2.498c4.969,0,11.925,2.772,18.009,12.181
		C95.298,5.269,102.254,2.498,107.225,2.498z"/>
	<path style="fill:#342D5B;" d="M107.234,2.537c20.826,0,30.838,34.715,30.838,67.963c0,33.248-10.012,67.961-30.838,67.961
		c-4.988,0-11.944-2.823-18.016-12.276c-6.07,9.453-13.025,12.276-18.013,12.276c-4.958,0-11.805-2.82-17.803-12.042
		c-4.985,8.766-11.469,13.689-18.909,13.689c-20.826,0-30.837-34.713-30.837-67.96c0-33.249,10.011-67.963,30.837-67.963
		c4.957,0,11.804,2.821,17.802,12.043C57.28,7.461,63.764,2.537,71.206,2.537c4.988,0,11.943,2.822,18.013,12.276
		C95.29,5.359,102.246,2.537,107.234,2.537z"/>
	<path style="fill:#342E5B;" d="M107.245,2.578c20.775,0,30.787,34.67,30.787,67.922c0,33.251-10.012,67.92-30.787,67.92
		c-5.007,0-11.962-2.872-18.021-12.369c-6.059,9.497-13.014,12.369-18.019,12.369c-4.977,0-11.825-2.871-17.81-12.142
		c-4.978,8.822-11.467,13.79-18.912,13.79c-20.774,0-30.786-34.669-30.786-67.92c0-33.251,10.012-67.921,30.786-67.921
		c4.976,0,11.824,2.873,17.809,12.142C57.271,7.545,63.759,2.578,71.206,2.578c5.005,0,11.96,2.872,18.019,12.369
		C95.283,5.45,102.238,2.578,107.245,2.578z"/>
	<path style="fill:#342E5B;" d="M107.255,2.618c20.724,0,30.736,34.626,30.736,67.882c0,33.254-10.013,67.879-30.736,67.879
		c-5.024,0-11.979-2.922-18.025-12.463c-6.046,9.541-13.001,12.463-18.023,12.463c-4.996,0-11.844-2.923-17.817-12.241
		c-4.972,8.879-11.465,13.89-18.915,13.89c-20.723,0-30.735-34.624-30.735-67.878c0-33.257,10.012-67.882,30.735-67.882
		c4.994,0,11.843,2.925,17.816,12.242C57.262,7.629,63.754,2.618,71.206,2.618c5.022,0,11.978,2.922,18.023,12.463
		C95.275,5.54,102.23,2.618,107.255,2.618z"/>
	<path style="fill:#352F5B;" d="M107.266,2.659c20.672,0,30.686,34.581,30.686,67.841c0,33.259-10.014,67.839-30.686,67.839
		c-5.042,0-11.997-2.973-18.03-12.557c-6.034,9.584-12.988,12.557-18.029,12.557c-5.014,0-11.863-2.976-17.824-12.34
		c-4.965,8.934-11.463,13.989-18.918,13.989c-20.671,0-30.684-34.58-30.684-67.839c0-33.26,10.012-67.841,30.684-67.841
		c5.013,0,11.862,2.976,17.823,12.341C57.253,7.713,63.75,2.659,71.206,2.659c5.041,0,11.995,2.972,18.029,12.557
		C95.269,5.631,102.224,2.659,107.266,2.659z"/>
	<path style="fill:#352F5B;" d="M107.275,2.7c20.62,0,30.635,34.536,30.635,67.8c0,33.263-10.015,67.799-30.635,67.799
		c-5.06,0-12.015-3.022-18.035-12.65c-6.021,9.628-12.977,12.65-18.034,12.65c-5.032,0-11.883-3.027-17.832-12.439
		c-4.958,8.99-11.461,14.089-18.92,14.089c-20.62,0-30.634-34.535-30.634-67.798c0-33.263,10.014-67.8,30.634-67.8
		c5.031,0,11.881,3.027,17.831,12.439C57.243,7.797,63.745,2.7,71.206,2.7c5.058,0,12.013,3.021,18.034,12.65
		C95.261,5.72,102.216,2.7,107.275,2.7z"/>
	<path style="fill:#362F5A;" d="M107.285,2.739c20.569,0,30.584,34.492,30.584,67.761c0,33.267-10.015,67.758-30.584,67.758
		c-5.077,0-12.031-3.072-18.04-12.744c-6.009,9.672-12.964,12.744-18.039,12.744c-5.05,0-11.902-3.078-17.838-12.539
		c-4.953,9.048-11.459,14.189-18.924,14.189c-20.569,0-30.583-34.491-30.583-67.758c0-33.267,10.014-67.76,30.583-67.76
		c5.049,0,11.901,3.081,17.837,12.54C57.234,7.881,63.74,2.739,71.206,2.739c5.075,0,12.03,3.072,18.039,12.745
		C95.254,5.811,102.208,2.739,107.285,2.739z"/>
	<path style="fill:#36305A;" d="M107.295,2.78c20.519,0,30.533,34.448,30.533,67.719c0,33.271-10.015,67.718-30.533,67.718
		c-5.095,0-12.049-3.122-18.045-12.838c-5.996,9.716-12.951,12.838-18.044,12.838c-5.069,0-11.921-3.13-17.846-12.639
		c-4.946,9.104-11.457,14.289-18.927,14.289c-20.517,0-30.532-34.446-30.532-67.717S13.917,4.432,34.434,4.432
		c5.068,0,11.921,3.132,17.845,12.639C57.225,7.965,63.735,2.78,71.206,2.78c5.093,0,12.048,3.122,18.044,12.838
		C95.246,5.901,102.2,2.78,107.295,2.78z"/>
	<path style="fill:#36305A;" d="M107.305,2.82c20.467,0,30.482,34.403,30.482,67.679c0,33.274-10.016,67.677-30.482,67.677
		c-5.112,0-12.066-3.172-18.05-12.932c-5.984,9.76-12.938,12.932-18.049,12.932c-5.088,0-11.941-3.182-17.853-12.737
		c-4.94,9.16-11.455,14.389-18.93,14.389c-20.466,0-30.48-34.402-30.48-67.676c0-33.276,10.014-67.679,30.48-67.679
		c5.087,0,11.94,3.184,17.853,12.738C57.215,8.049,63.73,2.82,71.206,2.82c5.11,0,12.064,3.171,18.049,12.932
		C95.238,5.991,102.192,2.82,107.305,2.82z"/>
	<path style="fill:#37315A;" d="M107.314,2.861c20.416,0,30.433,34.359,30.433,67.638c0,33.278-10.017,67.637-30.433,67.637
		c-5.13,0-12.083-3.223-18.055-13.026c-5.971,9.804-12.925,13.026-18.054,13.026c-5.105,0-11.96-3.234-17.86-12.837
		c-4.933,9.216-11.453,14.488-18.932,14.488c-20.415,0-30.431-34.357-30.431-67.636c0-33.279,10.016-67.638,30.431-67.638
		c5.105,0,11.959,3.235,17.859,12.838C57.207,8.133,63.726,2.861,71.206,2.861c5.129,0,12.083,3.221,18.054,13.026
		C95.231,6.082,102.185,2.861,107.314,2.861z"/>
	<path style="fill:#37315A;" d="M107.325,2.901c20.364,0,30.38,34.314,30.38,67.598c0,33.282-10.016,67.596-30.38,67.596
		c-5.147,0-12.102-3.272-18.06-13.12c-5.959,9.848-12.913,13.12-18.059,13.12c-5.125,0-11.98-3.286-17.868-12.937
		c-4.927,9.272-11.451,14.588-18.935,14.588c-20.364,0-30.379-34.313-30.379-67.595c0-33.283,10.016-67.597,30.379-67.597
		c5.124,0,11.979,3.287,17.867,12.937c4.927-9.275,11.45-14.59,18.936-14.59c5.146,0,12.1,3.271,18.059,13.119
		C95.224,6.172,102.178,2.901,107.325,2.901z"/>
	<path style="fill:#38315A;" d="M107.335,2.941c20.313,0,30.33,34.27,30.33,67.557s-10.018,67.556-30.33,67.556
		c-5.165,0-12.119-3.322-18.065-13.213c-5.946,9.891-12.899,13.213-18.063,13.213c-5.143,0-11.999-3.337-17.875-13.036
		c-4.92,9.329-11.449,14.688-18.938,14.688c-20.312,0-30.329-34.269-30.329-67.555S14.082,4.595,34.394,4.595
		c5.142,0,11.998,3.338,17.875,13.036c4.92-9.331,11.448-14.69,18.938-14.69c5.164,0,12.117,3.321,18.063,13.213
		C95.216,6.262,102.17,2.941,107.335,2.941z"/>
	<path style="fill:#38325A;" d="M107.346,2.982c20.262,0,30.279,34.226,30.279,67.517c0,33.29-10.018,67.514-30.279,67.514
		c-5.184,0-12.137-3.371-18.07-13.307c-5.934,9.936-12.887,13.307-18.068,13.307c-5.162,0-12.019-3.389-17.882-13.135
		c-4.914,9.386-11.446,14.788-18.941,14.788c-20.26,0-30.277-34.225-30.277-67.514c0-33.291,10.017-67.517,30.277-67.517
		c5.161,0,12.018,3.391,17.881,13.136c4.914-9.387,11.446-14.79,18.942-14.79c5.182,0,12.135,3.371,18.068,13.307
		C95.209,6.353,102.162,2.982,107.346,2.982z"/>
	<path style="fill:#383259;" d="M107.355,3.022c20.21,0,30.228,34.181,30.228,67.476c0,33.294-10.018,67.475-30.228,67.475
		c-5.201,0-12.154-3.422-18.075-13.401c-5.922,9.979-12.874,13.401-18.073,13.401c-5.18,0-12.038-3.441-17.889-13.234
		c-4.908,9.44-11.445,14.887-18.944,14.887c-20.209,0-30.227-34.18-30.227-67.473c0-33.294,10.018-67.476,30.227-67.476
		c5.179,0,12.037,3.442,17.889,13.235c4.907-9.443,11.444-14.89,18.944-14.89c5.199,0,12.151,3.421,18.073,13.4
		C95.201,6.443,102.154,3.022,107.355,3.022z"/>
	<path style="fill:#393259;" d="M107.365,3.063c20.158,0,30.178,34.136,30.178,67.436c0,33.298-10.02,67.434-30.178,67.434
		c-5.219,0-12.171-3.472-18.08-13.495c-5.909,10.023-12.861,13.495-18.078,13.495c-5.199,0-12.058-3.493-17.896-13.334
		c-4.901,9.497-11.443,14.987-18.947,14.987c-20.158,0-30.176-34.136-30.176-67.433c0-33.298,10.018-67.435,30.176-67.435
		c5.198,0,12.057,3.494,17.896,13.334c4.901-9.5,11.442-14.989,18.947-14.989c5.217,0,12.169,3.471,18.078,13.495
		C95.194,6.533,102.146,3.063,107.365,3.063z"/>
	<path style="fill:#393359;" d="M107.375,3.103c20.107,0,30.126,34.092,30.126,67.394c0,33.302-10.019,67.394-30.126,67.394
		c-5.236,0-12.188-3.522-18.085-13.589c-5.896,10.066-12.849,13.589-18.083,13.589c-5.217,0-12.077-3.545-17.903-13.433
		c-4.895,9.553-11.441,15.086-18.95,15.086c-20.106,0-30.125-34.091-30.125-67.392c0-33.302,10.019-67.394,30.125-67.394
		c5.216,0,12.076,3.546,17.903,13.434c4.895-9.556,11.44-15.089,18.95-15.089c5.235,0,12.187,3.521,18.083,13.588
		C95.187,6.624,102.139,3.103,107.375,3.103z"/>
	<path style="fill:#3A3359;" d="M107.385,3.143c20.057,0,30.076,34.047,30.076,67.354c0,33.306-10.02,67.353-30.076,67.353
		c-5.254,0-12.206-3.571-18.09-13.683c-5.884,10.111-12.836,13.683-18.088,13.683c-5.235,0-12.096-3.597-17.911-13.532
		c-4.888,9.609-11.438,15.187-18.953,15.187c-20.055,0-30.074-34.046-30.074-67.352S14.288,4.799,34.343,4.799
		c5.235,0,12.095,3.598,17.911,13.533C57.142,8.72,63.692,3.143,71.207,3.143c5.252,0,12.204,3.571,18.088,13.682
		C95.179,6.713,102.131,3.143,107.385,3.143z"/>
	<path style="fill:#3A3459;" d="M107.395,3.184c20.006,0,30.025,34.003,30.025,67.314c0,33.309-10.02,67.311-30.025,67.311
		c-5.271,0-12.223-3.621-18.094-13.775c-5.872,10.154-12.824,13.775-18.093,13.775c-5.254,0-12.116-3.647-17.918-13.631
		c-4.882,9.666-11.437,15.286-18.955,15.286c-20.004,0-30.024-34.002-30.024-67.311c0-33.31,10.02-67.313,30.024-67.313
		c5.253,0,12.114,3.649,17.917,13.632C57.133,8.804,63.688,3.184,71.208,3.184c5.269,0,12.221,3.621,18.093,13.776
		C95.172,6.804,102.124,3.184,107.395,3.184z"/>
	<path style="fill:#3A3459;" d="M107.405,3.224c19.953,0,29.974,33.958,29.974,67.273c0,33.313-10.021,67.271-29.974,67.271
		c-5.289,0-12.241-3.671-18.1-13.869c-5.859,10.198-12.812,13.869-18.098,13.869c-5.273,0-12.135-3.699-17.926-13.73
		c-4.875,9.723-11.435,15.387-18.958,15.387c-19.953,0-29.973-33.958-29.973-67.271c0-33.314,10.02-67.272,29.973-67.272
		c5.271,0,12.134,3.701,17.925,13.731C57.124,8.888,63.683,3.224,71.208,3.224c5.287,0,12.239,3.67,18.098,13.87
		C95.164,6.895,102.116,3.224,107.405,3.224z"/>
	<path style="fill:#3B3458;" d="M107.415,3.265c19.902,0,29.923,33.914,29.923,67.232c0,33.316-10.021,67.229-29.923,67.229
		c-5.307,0-12.259-3.721-18.104-13.963c-5.847,10.242-12.799,13.963-18.103,13.963c-5.292,0-12.155-3.751-17.933-13.83
		c-4.869,9.779-11.433,15.486-18.961,15.486c-19.901,0-29.922-33.912-29.922-67.229S14.412,4.922,34.313,4.922
		c5.29,0,12.154,3.752,17.932,13.831C57.114,8.972,63.678,3.265,71.208,3.265c5.304,0,12.256,3.72,18.103,13.963
		C95.156,6.984,102.108,3.265,107.415,3.265z"/>
	<path style="fill:#3B3558;" d="M107.426,3.305c19.851,0,29.872,33.869,29.872,67.191c0,33.322-10.021,67.19-29.872,67.19
		c-5.324,0-12.276-3.771-18.109-14.058c-5.835,10.286-12.786,14.058-18.109,14.058c-5.31,0-12.174-3.803-17.94-13.93
		c-4.862,9.835-11.431,15.586-18.964,15.586c-19.85,0-29.871-33.868-29.871-67.188c0-33.322,10.021-67.191,29.871-67.191
		c5.309,0,12.173,3.804,17.939,13.93c4.862-9.837,11.43-15.587,18.964-15.587c5.323,0,12.274,3.77,18.109,14.057
		C95.149,7.075,102.102,3.305,107.426,3.305z"/>
	<path style="fill:#3B3558;" d="M107.436,3.345c19.799,0,29.821,33.825,29.821,67.151c0,33.325-10.022,67.149-29.821,67.149
		c-5.342,0-12.293-3.821-18.115-14.151c-5.821,10.33-12.772,14.151-18.113,14.151c-5.328,0-12.193-3.854-17.947-14.028
		c-4.856,9.891-11.429,15.685-18.967,15.685c-19.799,0-29.82-33.823-29.82-67.147c0-33.326,10.021-67.151,29.82-67.151
		c5.327,0,12.192,3.856,17.946,14.03C57.097,9.14,63.668,3.345,71.208,3.345c5.34,0,12.292,3.82,18.113,14.151
		C95.143,7.165,102.094,3.345,107.436,3.345z"/>
	<path style="fill:#3C3658;" d="M107.445,3.386c19.748,0,29.771,33.78,29.771,67.11c0,33.328-10.022,67.108-29.771,67.108
		c-5.359,0-12.311-3.871-18.119-14.244c-5.81,10.373-12.761,14.244-18.119,14.244c-5.346,0-12.213-3.906-17.954-14.128
		c-4.85,9.947-11.427,15.785-18.97,15.785c-19.747,0-29.77-33.779-29.77-67.107c0-33.33,10.022-67.11,29.77-67.11
		c5.346,0,12.211,3.908,17.954,14.128c4.85-9.949,11.426-15.787,18.97-15.787c5.358,0,12.309,3.87,18.119,14.245
		C95.135,7.255,102.086,3.386,107.445,3.386z"/>
	<path style="fill:#3C3658;" d="M107.455,3.426c19.696,0,29.72,33.736,29.72,67.07c0,33.332-10.023,67.068-29.72,67.068
		c-5.377,0-12.328-3.922-18.124-14.34c-5.797,10.418-12.748,14.34-18.123,14.34c-5.365,0-12.232-3.959-17.962-14.229
		c-4.843,10.004-11.425,15.886-18.973,15.886c-19.696,0-29.719-33.735-29.719-67.067c0-33.333,10.023-67.069,29.719-67.069
		c5.364,0,12.231,3.959,17.961,14.228C57.078,9.307,63.658,3.426,71.208,3.426c5.375,0,12.326,3.92,18.123,14.338
		C95.127,7.345,102.078,3.426,107.455,3.426z"/>
	<path style="fill:#3D3758;" d="M107.465,3.466c19.646,0,29.669,33.691,29.669,67.029c0,33.337-10.023,67.027-29.669,67.027
		c-5.395,0-12.346-3.971-18.129-14.433c-5.785,10.462-12.734,14.433-18.128,14.433c-5.384,0-12.252-4.01-17.969-14.327
		c-4.836,10.061-11.422,15.985-18.976,15.985c-19.644,0-29.667-33.69-29.667-67.026c0-33.337,10.023-67.029,29.667-67.029
		c5.382,0,12.251,4.012,17.969,14.328C57.068,9.391,63.653,3.466,71.208,3.466c5.394,0,12.343,3.97,18.128,14.432
		C95.119,7.436,102.07,3.466,107.465,3.466z"/>
	<path style="fill:#3D3758;" d="M107.476,3.507c19.594,0,29.618,33.647,29.618,66.989c0,33.34-10.024,66.987-29.618,66.987
		c-5.413,0-12.363-4.021-18.135-14.526c-5.771,10.505-12.722,14.526-18.132,14.526c-5.402,0-12.271-4.063-17.977-14.426
		c-4.83,10.115-11.42,16.084-18.978,16.084c-19.594,0-29.617-33.646-29.617-66.985c0-33.341,10.023-66.988,29.617-66.988
		c5.401,0,12.27,4.063,17.975,14.427C57.06,9.476,63.649,3.507,71.208,3.507c5.411,0,12.361,4.02,18.132,14.526
		C95.112,7.526,102.063,3.507,107.476,3.507z"/>
	<path style="fill:#3D3858;" d="M107.485,3.547c19.542,0,29.567,33.603,29.567,66.948c0,33.345-10.025,66.946-29.567,66.946
		c-5.431,0-12.381-4.07-18.139-14.62c-5.761,10.55-12.71,14.62-18.139,14.62c-5.42,0-12.291-4.113-17.983-14.525
		C48.401,133.088,41.807,139.1,34.244,139.1c-19.542,0-29.566-33.601-29.566-66.944c0-33.345,10.024-66.947,29.566-66.947
		c5.419,0,12.29,4.114,17.983,14.525C57.05,9.56,63.644,3.547,71.208,3.547c5.429,0,12.378,4.07,18.139,14.62
		C95.104,7.617,102.055,3.547,107.485,3.547z"/>
	<path style="fill:#3E3857;" d="M107.495,3.588c19.491,0,29.517,33.558,29.517,66.907c0,33.349-10.025,66.905-29.517,66.905
		c-5.447,0-12.397-4.12-18.144-14.713C83.604,133.28,76.654,137.4,71.208,137.4c-5.438,0-12.31-4.165-17.99-14.624
		c-4.817,10.229-11.417,16.284-18.984,16.284c-19.491,0-29.516-33.558-29.516-66.905c0-33.349,10.025-66.907,29.516-66.907
		c5.438,0,12.309,4.167,17.99,14.625C57.041,9.644,63.64,3.588,71.208,3.588c5.446,0,12.396,4.119,18.144,14.713
		C95.098,7.707,102.048,3.588,107.495,3.588z"/>
	<path style="fill:#3E3957;" d="M107.505,3.628c19.44,0,29.466,33.514,29.466,66.866s-10.025,66.865-29.466,66.865
		c-5.465,0-12.415-4.17-18.148-14.807c-5.734,10.637-12.685,14.807-18.148,14.807c-5.457,0-12.329-4.217-17.997-14.724
		c-4.812,10.284-11.415,16.384-18.987,16.384c-19.439,0-29.465-33.513-29.465-66.863c0-33.353,10.025-66.867,29.465-66.867
		c5.456,0,12.328,4.219,17.997,14.725C57.032,9.727,63.634,3.628,71.208,3.628c5.464,0,12.414,4.17,18.148,14.807
		C95.09,7.797,102.04,3.628,107.505,3.628z"/>
	<path style="fill:#3F3957;" d="M107.515,3.668c19.389,0,29.415,33.469,29.415,66.826c0,33.355-10.026,66.824-29.415,66.824
		c-5.483,0-12.433-4.221-18.153-14.901c-5.723,10.681-12.672,14.901-18.153,14.901c-5.476,0-12.349-4.269-18.005-14.823
		c-4.805,10.342-11.412,16.483-18.99,16.483c-19.387,0-29.414-33.468-29.414-66.823c0-33.356,10.026-66.826,29.414-66.826
		c5.475,0,12.349,4.27,18.005,14.824C57.022,9.811,63.629,3.668,71.208,3.668c5.481,0,12.431,4.219,18.153,14.901
		C95.082,7.887,102.031,3.668,107.515,3.668z"/>
	<path style="fill:#3F3957;" d="M107.525,3.709c19.337,0,29.364,33.424,29.364,66.785c0,33.359-10.027,66.784-29.364,66.784
		c-5.501,0-12.45-4.271-18.159-14.995c-5.709,10.725-12.659,14.995-18.157,14.995c-5.495,0-12.369-4.321-18.013-14.923
		c-4.798,10.397-11.411,16.583-18.993,16.583c-19.336,0-29.363-33.423-29.363-66.782c0-33.36,10.026-66.785,29.363-66.785
		c5.494,0,12.367,4.321,18.011,14.923c4.798-10.4,11.41-16.585,18.994-16.585c5.498,0,12.448,4.269,18.157,14.994
		C95.075,7.978,102.024,3.709,107.525,3.709z"/>
	<path style="fill:#3F3A57;" d="M107.535,3.749c19.286,0,29.313,33.381,29.313,66.745c0,33.363-10.027,66.743-29.313,66.743
		c-5.518,0-12.467-4.32-18.163-15.089c-5.698,10.769-12.646,15.089-18.164,15.089c-5.512,0-12.387-4.372-18.019-15.022
		c-4.792,10.455-11.408,16.684-18.996,16.684c-19.285,0-29.312-33.379-29.312-66.742c0-33.364,10.027-66.744,29.312-66.744
		c5.512,0,12.387,4.373,18.019,15.022C57.004,9.979,63.62,3.749,71.208,3.749c5.517,0,12.465,4.319,18.164,15.088
		C95.068,8.068,102.018,3.749,107.535,3.749z"/>
	<path style="fill:#403A57;" d="M107.545,3.789c19.234,0,29.263,33.336,29.263,66.705c0,33.367-10.028,66.702-29.263,66.702
		c-5.536,0-12.484-4.37-18.168-15.183c-5.686,10.813-12.634,15.183-18.168,15.183c-5.531,0-12.407-4.424-18.027-15.121
		c-4.785,10.51-11.406,16.782-18.998,16.782c-19.234,0-29.261-33.334-29.261-66.701S14.95,5.452,34.184,5.452
		c5.53,0,12.406,4.426,18.026,15.123C56.995,10.063,63.615,3.789,71.208,3.789c5.535,0,12.483,4.37,18.168,15.183
		C95.061,8.158,102.009,3.789,107.545,3.789z"/>
	<path style="fill:#403B57;" d="M107.555,3.83c19.184,0,29.212,33.292,29.212,66.664c0,33.371-10.028,66.662-29.212,66.662
		c-5.553,0-12.502-4.42-18.174-15.276c-5.672,10.856-12.62,15.276-18.172,15.276c-5.55,0-12.426-4.476-18.034-15.221
		c-4.778,10.566-11.404,16.883-19.002,16.883c-19.182,0-29.21-33.29-29.21-66.661c0-33.372,10.028-66.663,29.21-66.663
		c5.549,0,12.426,4.477,18.034,15.221C56.985,10.146,63.61,3.83,71.208,3.83c5.552,0,12.5,4.419,18.172,15.276
		C95.053,8.249,102.002,3.83,107.555,3.83z"/>
	<path style="fill:#413B56;" d="M107.565,3.87c19.132,0,29.161,33.247,29.161,66.623s-10.029,66.622-29.161,66.622
		c-5.571,0-12.521-4.471-18.179-15.371c-5.66,10.9-12.607,15.371-18.178,15.371c-5.568,0-12.446-4.527-18.042-15.32
		c-4.772,10.623-11.402,16.982-19.004,16.982c-19.131,0-29.16-33.246-29.16-66.62c0-33.376,10.029-66.623,29.16-66.623
		c5.567,0,12.445,4.529,18.041,15.321C56.977,10.23,63.605,3.87,71.209,3.87c5.57,0,12.518,4.469,18.178,15.37
		C95.045,8.339,101.994,3.87,107.565,3.87z"/>
	<path style="fill:#413C56;" d="M107.575,3.911c19.081,0,29.11,33.202,29.11,66.582s-10.029,66.581-29.11,66.581
		c-5.589,0-12.537-4.521-18.184-15.464c-5.647,10.943-12.595,15.464-18.183,15.464c-5.587,0-12.465-4.579-18.048-15.42
		c-4.767,10.68-11.4,17.083-19.007,17.083c-19.08,0-29.109-33.202-29.109-66.58c0-33.379,10.029-66.582,29.109-66.582
		c5.586,0,12.464,4.581,18.048,15.42C56.968,10.314,63.601,3.911,71.209,3.911c5.588,0,12.535,4.519,18.183,15.463
		C95.038,8.43,101.986,3.911,107.575,3.911z"/>
	<path style="fill:#413C56;" d="M107.585,3.951c19.029,0,29.06,33.158,29.06,66.542c0,33.383-10.03,66.54-29.06,66.54
		c-5.606,0-12.555-4.57-18.188-15.558c-5.635,10.987-12.583,15.558-18.188,15.558c-5.605,0-12.484-4.631-18.056-15.519
		c-4.759,10.735-11.398,17.182-19.01,17.182c-19.028,0-29.058-33.157-29.058-66.539c0-33.383,10.03-66.541,29.058-66.541
		c5.604,0,12.484,4.632,18.055,15.519c4.76-10.737,11.397-17.185,19.011-17.185c5.604,0,12.553,4.569,18.188,15.557
		C95.03,8.52,101.979,3.951,107.585,3.951z"/>
	<path style="fill:#423D56;" d="M107.595,3.991c18.979,0,29.009,33.113,29.009,66.501c0,33.387-10.03,66.5-29.009,66.5
		c-5.624,0-12.571-4.62-18.193-15.651c-5.622,11.031-12.57,15.651-18.192,15.651c-5.624,0-12.504-4.683-18.063-15.618
		c-4.753,10.791-11.397,17.282-19.014,17.282c-18.977,0-29.006-33.113-29.006-66.499c0-33.387,10.03-66.5,29.006-66.5
		c5.623,0,12.504,4.684,18.063,15.618C56.948,10.482,63.591,3.991,71.209,3.991c5.622,0,12.57,4.618,18.192,15.65
		C95.023,8.609,101.971,3.991,107.595,3.991z"/>
	<path style="fill:#423D56;" d="M107.605,4.032c18.926,0,28.958,33.069,28.958,66.46c0,33.391-10.032,66.459-28.958,66.459
		c-5.643,0-12.59-4.67-18.198-15.744c-5.61,11.074-12.558,15.744-18.198,15.744c-5.642,0-12.523-4.734-18.07-15.717
		c-4.747,10.848-11.394,17.381-19.016,17.381c-18.926,0-28.957-33.067-28.957-66.457c0-33.392,10.031-66.461,28.957-66.461
		c5.641,0,12.522,4.736,18.07,15.718c4.746-10.85,11.393-17.384,19.016-17.384c5.641,0,12.588,4.668,18.198,15.744
		C95.016,8.7,101.963,4.032,107.605,4.032z"/>
	<path style="fill:#433E56;" d="M107.615,4.072c18.875,0,28.907,33.024,28.907,66.42c0,33.395-10.032,66.418-28.907,66.418
		c-5.659,0-12.607-4.719-18.203-15.838c-5.598,11.119-12.545,15.838-18.203,15.838c-5.661,0-12.543-4.785-18.077-15.816
		c-4.74,10.904-11.392,17.482-19.019,17.482c-18.875,0-28.905-33.024-28.905-66.418c0-33.395,10.031-66.419,28.905-66.419
		c5.66,0,12.542,4.788,18.077,15.817C56.931,10.65,63.582,4.072,71.209,4.072c5.658,0,12.605,4.719,18.203,15.838
		C95.008,8.791,101.956,4.072,107.615,4.072z"/>
	<path style="fill:#433E56;" d="M107.625,4.112c18.824,0,28.856,32.98,28.856,66.38c0,33.398-10.032,66.378-28.856,66.378
		c-5.677,0-12.624-4.771-18.208-15.933C83.832,132.1,76.885,136.87,71.209,136.87c-5.679,0-12.563-4.839-18.084-15.917
		c-4.733,10.961-11.391,17.582-19.021,17.582c-18.823,0-28.854-32.979-28.854-66.377S15.281,5.779,34.104,5.779
		c5.678,0,12.562,4.839,18.084,15.917c4.733-10.962,11.39-17.583,19.022-17.583c5.675,0,12.623,4.769,18.208,15.932
		C95.001,8.881,101.948,4.112,107.625,4.112z"/>
	<path style="fill:#433F55;" d="M107.635,4.152c18.772,0,28.805,32.936,28.805,66.339c0,33.403-10.032,66.336-28.805,66.336
		c-5.694,0-12.642-4.818-18.213-16.025c-5.572,11.207-12.52,16.025-18.212,16.025c-5.698,0-12.582-4.889-18.092-16.015
		c-4.727,11.017-11.388,17.681-19.024,17.681c-18.771,0-28.803-32.935-28.803-66.336c0-33.403,10.032-66.339,28.803-66.339
		c5.697,0,12.581,4.892,18.092,16.016C56.912,10.817,63.572,4.152,71.209,4.152c5.693,0,12.64,4.818,18.212,16.026
		C94.993,8.971,101.94,4.152,107.635,4.152z"/>
	<path style="fill:#443F55;" d="M107.646,4.193c18.721,0,28.754,32.891,28.754,66.298c0,33.406-10.033,66.297-28.754,66.297
		c-5.712,0-12.659-4.869-18.219-16.12c-5.56,11.251-12.507,16.12-18.217,16.12c-5.716,0-12.601-4.941-18.099-16.114
		c-4.721,11.072-11.386,17.78-19.027,17.78c-18.72,0-28.753-32.89-28.753-66.296S15.363,5.861,34.083,5.861
		c5.715,0,12.6,4.943,18.099,16.115C56.903,10.901,63.567,4.193,71.209,4.193c5.71,0,12.658,4.868,18.217,16.119
		C94.986,9.061,101.934,4.193,107.646,4.193z"/>
	<path style="fill:#444055;" d="M107.655,4.234c18.67,0,28.704,32.847,28.704,66.258c0,33.41-10.034,66.256-28.704,66.256
		c-5.729,0-12.677-4.92-18.223-16.215c-5.548,11.295-12.494,16.215-18.223,16.215c-5.734,0-12.621-4.994-18.106-16.214
		c-4.715,11.129-11.384,17.88-19.03,17.88c-18.669,0-28.702-32.846-28.702-66.255c0-33.411,10.033-66.257,28.702-66.257
		c5.734,0,12.62,4.994,18.106,16.214c4.714-11.13,11.383-17.882,19.03-17.882c5.729,0,12.675,4.918,18.223,16.213
		C94.979,9.152,101.926,4.234,107.655,4.234z"/>
	<path style="fill:#454055;" d="M107.665,4.274c18.618,0,28.653,32.802,28.653,66.217c0,33.414-10.035,66.215-28.653,66.215
		c-5.747,0-12.694-4.969-18.228-16.308c-5.535,11.339-12.481,16.308-18.228,16.308c-5.753,0-12.641-5.044-18.113-16.313
		c-4.708,11.185-11.382,17.979-19.033,17.979c-18.617,0-28.651-32.801-28.651-66.214c0-33.414,10.034-66.217,28.651-66.217
		c5.752,0,12.639,5.047,18.113,16.314C56.884,11.069,63.558,4.274,71.21,4.274c5.746,0,12.692,4.968,18.228,16.307
		C94.971,9.241,101.918,4.274,107.665,4.274z"/>
	<path style="fill:#454155;" d="M107.675,4.314c18.567,0,28.603,32.757,28.603,66.176c0,33.417-10.035,66.174-28.603,66.174
		c-5.766,0-12.711-5.019-18.233-16.401c-5.522,11.383-12.468,16.401-18.231,16.401c-5.771,0-12.66-5.097-18.121-16.412
		c-4.701,11.241-11.38,18.08-19.035,18.08c-18.566,0-28.601-32.757-28.601-66.174c0-33.418,10.034-66.176,28.601-66.176
		c5.771,0,12.658,5.098,18.12,16.413C56.875,11.153,63.553,4.314,71.21,4.314c5.764,0,12.709,5.018,18.231,16.4
		C94.964,9.332,101.909,4.314,107.675,4.314z"/>
	<path style="fill:#454155;" d="M107.686,4.354c18.516,0,28.551,32.713,28.551,66.136c0,33.422-10.035,66.135-28.551,66.135
		c-5.783,0-12.729-5.069-18.238-16.496c-5.51,11.427-12.456,16.496-18.237,16.496c-5.79,0-12.679-5.148-18.128-16.512
		c-4.695,11.297-11.378,18.18-19.039,18.18c-18.515,0-28.549-32.713-28.549-66.133c0-33.423,10.035-66.136,28.549-66.136
		c5.79,0,12.679,5.15,18.128,16.512C56.866,11.237,63.548,4.354,71.21,4.354c5.781,0,12.728,5.068,18.237,16.495
		C94.956,9.422,101.902,4.354,107.686,4.354z"/>
	<path style="fill:#464255;" d="M107.695,4.396c18.465,0,28.5,32.668,28.5,66.095c0,33.425-10.035,66.093-28.5,66.093
		c-5.801,0-12.746-5.119-18.243-16.589c-5.497,11.47-12.442,16.589-18.242,16.589c-5.808,0-12.698-5.199-18.135-16.611
		c-4.688,11.354-11.376,18.28-19.042,18.28c-18.463,0-28.499-32.668-28.499-66.093c0-33.426,10.035-66.095,28.499-66.095
		c5.807,0,12.698,5.202,18.134,16.611C56.857,11.321,63.543,4.396,71.21,4.396c5.8,0,12.745,5.117,18.242,16.588
		C94.949,9.513,101.895,4.396,107.695,4.396z"/>
	<path style="fill:#464254;" d="M107.705,4.436c18.413,0,28.45,32.624,28.45,66.055c0,33.43-10.037,66.053-28.45,66.053
		c-5.818,0-12.764-5.169-18.248-16.683c-5.484,11.514-12.43,16.683-18.247,16.683c-5.827,0-12.718-5.252-18.143-16.71
		c-4.682,11.41-11.374,18.379-19.044,18.379c-18.412,0-28.448-32.623-28.448-66.052c0-33.43,10.036-66.054,28.448-66.054
		c5.826,0,12.717,5.253,18.142,16.711C56.848,11.405,63.538,4.436,71.21,4.436c5.817,0,12.763,5.167,18.247,16.682
		C94.941,9.603,101.887,4.436,107.705,4.436z"/>
	<path style="fill:#474354;" d="M107.715,4.476c18.362,0,28.398,32.58,28.398,66.014c0,33.433-10.036,66.012-28.398,66.012
		c-5.836,0-12.781-5.219-18.253-16.776c-5.472,11.558-12.418,16.776-18.252,16.776c-5.846,0-12.737-5.303-18.149-16.81
		c-4.676,11.466-11.372,18.479-19.047,18.479c-18.361,0-28.397-32.579-28.397-66.011c0-33.434,10.036-66.014,28.397-66.014
		c5.844,0,12.735,5.305,18.148,16.811C56.838,11.488,63.533,4.476,71.21,4.476c5.834,0,12.78,5.218,18.252,16.776
		C94.934,9.693,101.879,4.476,107.715,4.476z"/>
	<path style="fill:#474354;" d="M107.726,4.517c18.311,0,28.348,32.535,28.348,65.973c0,33.438-10.037,65.972-28.348,65.972
		c-5.854,0-12.8-5.269-18.258-16.87c-5.46,11.602-12.405,16.87-18.257,16.87c-5.864,0-12.756-5.355-18.157-16.908
		c-4.67,11.522-11.37,18.579-19.051,18.579c-18.309,0-28.346-32.535-28.346-65.972c0-33.438,10.038-65.973,28.346-65.973
		c5.864,0,12.756,5.357,18.157,16.91C56.829,11.573,63.529,4.517,71.21,4.517c5.852,0,12.797,5.267,18.257,16.869
		C94.926,9.783,101.872,4.517,107.726,4.517z"/>
	<path style="fill:#484454;" d="M107.735,4.557c18.259,0,28.298,32.491,28.298,65.933c0,33.441-10.039,65.931-28.298,65.931
		c-5.871,0-12.815-5.318-18.263-16.964c-5.447,11.646-12.393,16.964-18.262,16.964c-5.883,0-12.776-5.407-18.164-17.009
		c-4.663,11.579-11.368,18.68-19.053,18.68c-18.258,0-28.295-32.49-28.295-65.931c0-33.441,10.038-65.933,28.295-65.933
		c5.881,0,12.775,5.409,18.164,17.009C56.82,11.657,63.524,4.557,71.211,4.557c5.869,0,12.814,5.317,18.262,16.964
		C94.92,9.874,101.864,4.557,107.735,4.557z"/>
	<path style="fill:#484454;" d="M107.745,4.597c18.208,0,28.246,32.447,28.246,65.893c0,33.444-10.038,65.891-28.246,65.891
		c-5.889,0-12.834-5.368-18.268-17.058c-5.436,11.689-12.38,17.058-18.267,17.058c-5.901,0-12.796-5.459-18.172-17.108
		c-4.656,11.636-11.366,18.779-19.056,18.779c-18.207,0-28.245-32.445-28.245-65.89c0-33.445,10.038-65.892,28.245-65.892
		c5.899,0,12.794,5.46,18.171,17.108C56.811,11.741,63.52,4.597,71.211,4.597c5.887,0,12.831,5.368,18.267,17.058
		C94.911,9.964,101.856,4.597,107.745,4.597z"/>
	<path style="fill:#484554;" d="M107.755,4.637c18.157,0,28.196,32.402,28.196,65.852c0,33.449-10.039,65.85-28.196,65.85
		c-5.906,0-12.852-5.419-18.272-17.151c-5.423,11.732-12.367,17.151-18.272,17.151c-5.919,0-12.814-5.511-18.178-17.207
		c-4.65,11.691-11.364,18.878-19.059,18.878c-18.156,0-28.194-32.401-28.194-65.849c0-33.449,10.038-65.852,28.194-65.852
		c5.918,0,12.813,5.513,18.178,17.208C56.801,11.824,63.514,4.637,71.21,4.637c5.905,0,12.85,5.418,18.272,17.151
		C94.903,10.054,101.849,4.637,107.755,4.637z"/>
	<path style="fill:#494553;" d="M107.766,4.678c18.104,0,28.145,32.357,28.145,65.812c0,33.452-10.04,65.809-28.145,65.809
		c-5.925,0-12.869-5.468-18.278-17.245c-5.41,11.777-12.354,17.245-18.276,17.245c-5.938,0-12.834-5.563-18.186-17.306
		c-4.644,11.748-11.362,18.978-19.062,18.978c-18.104,0-28.143-32.356-28.143-65.808c0-33.454,10.039-65.811,28.143-65.811
		c5.938,0,12.834,5.564,18.186,17.307c4.644-11.75,11.361-18.98,19.063-18.98c5.923,0,12.866,5.467,18.276,17.244
		C94.896,10.145,101.841,4.678,107.766,4.678z"/>
	<path style="fill:#494653;" d="M107.775,4.719c18.054,0,28.094,32.313,28.094,65.77c0,33.457-10.04,65.769-28.094,65.769
		c-5.941,0-12.886-5.519-18.282-17.34c-5.397,11.821-12.342,17.34-18.282,17.34c-5.956,0-12.854-5.614-18.193-17.406
		c-4.637,11.805-11.36,19.078-19.064,19.078c-18.053,0-28.092-32.313-28.092-65.768c0-33.457,10.04-65.771,28.092-65.771
		c5.955,0,12.853,5.616,18.193,17.407c4.637-11.806,11.358-19.08,19.064-19.08c5.94,0,12.885,5.517,18.282,17.338
		C94.89,10.235,101.834,4.719,107.775,4.719z"/>
	<path style="fill:#4A4653;" d="M107.785,4.758c18.003,0,28.043,32.268,28.043,65.73c0,33.461-10.04,65.729-28.043,65.729
		c-5.959,0-12.903-5.568-18.287-17.434c-5.386,11.865-12.329,17.434-18.287,17.434c-5.975,0-12.873-5.666-18.2-17.506
		c-4.631,11.861-11.357,19.178-19.067,19.178c-18.001,0-28.042-32.268-28.042-65.727c0-33.461,10.041-65.729,28.042-65.729
		c5.974,0,12.872,5.667,18.2,17.505c4.63-11.862,11.357-19.18,19.068-19.18c5.958,0,12.901,5.567,18.287,17.432
		C94.882,10.325,101.826,4.758,107.785,4.758z"/>
	<path style="fill:#4A4753;" d="M107.795,4.799c17.951,0,27.992,32.224,27.992,65.689c0,33.464-10.041,65.688-27.992,65.688
		c-5.977,0-12.921-5.618-18.293-17.527c-5.372,11.909-12.316,17.527-18.291,17.527c-5.993,0-12.893-5.718-18.208-17.604
		c-4.624,11.917-11.355,19.277-19.069,19.277c-17.951,0-27.991-32.224-27.991-65.687c0-33.465,10.041-65.689,27.991-65.689
		c5.992,0,12.891,5.719,18.207,17.605C56.765,12.16,63.495,4.799,71.211,4.799c5.975,0,12.919,5.616,18.291,17.526
		C94.874,10.415,101.818,4.799,107.795,4.799z"/>
	<path style="fill:#4B4753;" d="M107.806,4.839c17.899,0,27.941,32.18,27.941,65.649c0,33.468-10.042,65.646-27.941,65.646
		c-5.995,0-12.938-5.668-18.298-17.62c-5.359,11.952-12.304,17.62-18.297,17.62c-6.012,0-12.912-5.77-18.214-17.703
		c-4.618,11.973-11.354,19.377-19.073,19.377c-17.899,0-27.94-32.179-27.94-65.646c0-33.468,10.041-65.648,27.94-65.648
		c6.011,0,12.911,5.771,18.214,17.705c4.618-11.975,11.353-19.38,19.073-19.38c5.993,0,12.938,5.667,18.297,17.62
		C94.867,10.506,101.811,4.839,107.806,4.839z"/>
	<path style="fill:#4B4852;" d="M107.815,4.88c17.849,0,27.891,32.135,27.891,65.608c0,33.472-10.042,65.606-27.891,65.606
		c-6.012,0-12.956-5.717-18.303-17.714c-5.348,11.997-12.29,17.714-18.301,17.714c-6.03,0-12.931-5.82-18.222-17.803
		c-4.612,12.029-11.352,19.477-19.076,19.477c-17.847,0-27.889-32.134-27.889-65.604c0-33.473,10.042-65.608,27.889-65.608
		c6.029,0,12.931,5.823,18.222,17.804C56.747,12.328,63.486,4.88,71.211,4.88c6.011,0,12.954,5.717,18.301,17.713
		C94.859,10.596,101.804,4.88,107.815,4.88z"/>
	<path style="fill:#4C4852;" d="M107.825,4.92c17.797,0,27.84,32.091,27.84,65.567s-10.043,65.565-27.84,65.565
		c-6.03,0-12.974-5.768-18.308-17.808c-5.335,12.04-12.277,17.808-18.307,17.808c-6.048,0-12.95-5.872-18.229-17.902
		c-4.605,12.086-11.35,19.577-19.079,19.577c-17.796,0-27.838-32.09-27.838-65.564c0-33.477,10.042-65.567,27.838-65.567
		c6.048,0,12.95,5.875,18.229,17.903C56.737,12.412,63.48,4.92,71.211,4.92c6.029,0,12.972,5.767,18.307,17.808
		C94.852,10.687,101.795,4.92,107.825,4.92z"/>
	<path style="fill:#4C4852;" d="M107.835,4.96c17.745,0,27.789,32.046,27.789,65.527c0,33.48-10.044,65.525-27.789,65.525
		c-6.048,0-12.991-5.817-18.312-17.901c-5.323,12.084-12.266,17.901-18.313,17.901c-6.067,0-12.97-5.924-18.236-18.002
		c-4.599,12.143-11.348,19.677-19.081,19.677c-17.745,0-27.788-32.045-27.788-65.523c0-33.48,10.043-65.527,27.788-65.527
		c6.066,0,12.969,5.926,18.236,18.002C56.728,12.496,63.476,4.96,71.211,4.96c6.047,0,12.989,5.816,18.313,17.901
		C94.844,10.776,101.787,4.96,107.835,4.96z"/>
	<path style="fill:#4C4952;" d="M107.846,5.001c17.694,0,27.737,32.001,27.737,65.486c0,33.483-10.043,65.483-27.737,65.483
		c-6.065,0-13.008-5.867-18.317-17.995c-5.311,12.128-12.253,17.995-18.316,17.995c-6.086,0-12.99-5.976-18.244-18.1
		c-4.592,12.197-11.346,19.775-19.084,19.775c-17.693,0-27.737-32.001-27.737-65.483c0-33.484,10.044-65.485,27.737-65.485
		c6.084,0,12.988,5.978,18.243,18.102C56.719,12.58,63.471,5.001,71.212,5.001c6.063,0,13.006,5.866,18.316,17.994
		C94.838,10.867,101.78,5.001,107.846,5.001z"/>
	<path style="fill:#4D4951;" d="M107.855,5.041c17.643,0,27.688,31.957,27.688,65.446c0,33.488-10.045,65.444-27.688,65.444
		c-6.083,0-13.025-5.917-18.322-18.089c-5.298,12.172-12.24,18.089-18.321,18.089c-6.104,0-13.009-6.028-18.251-18.2
		c-4.585,12.255-11.344,19.876-19.087,19.876c-17.642,0-27.686-31.956-27.686-65.442c0-33.488,10.044-65.445,27.686-65.445
		c6.104,0,13.008,6.029,18.25,18.201C56.709,12.664,63.467,5.041,71.212,5.041c6.081,0,13.023,5.917,18.321,18.089
		C94.83,10.957,101.772,5.041,107.855,5.041z"/>
	<path style="fill:#4D4A51;" d="M107.865,5.082c17.592,0,27.637,31.913,27.637,65.405c0,33.491-10.045,65.403-27.637,65.403
		c-6.101,0-13.043-5.968-18.326-18.183c-5.286,12.215-12.229,18.183-18.328,18.183c-6.123,0-13.028-6.08-18.258-18.299
		c-4.579,12.31-11.341,19.976-19.09,19.976c-17.591,0-27.635-31.912-27.635-65.402c0-33.492,10.044-65.405,27.635-65.405
		c6.122,0,13.027,6.082,18.258,18.301C56.7,12.748,63.462,5.082,71.211,5.082c6.099,0,13.042,5.966,18.328,18.182
		C94.822,11.048,101.765,5.082,107.865,5.082z"/>
	<path style="fill:#4E4A51;" d="M107.875,5.122c17.541,0,27.586,31.868,27.586,65.364s-10.045,65.363-27.586,65.363
		c-6.118,0-13.061-6.018-18.332-18.276c-5.273,12.259-12.215,18.276-18.332,18.276c-6.141,0-13.048-6.132-18.265-18.398
		c-4.573,12.366-11.34,20.075-19.093,20.075c-17.54,0-27.584-31.867-27.584-65.361C6.269,38.668,16.313,6.8,33.854,6.8
		c6.14,0,13.047,6.133,18.265,18.399C56.691,12.831,63.457,5.122,71.211,5.122c6.117,0,13.058,6.016,18.332,18.275
		C94.814,11.138,101.757,5.122,107.875,5.122z"/>
	<path style="fill:#4E4B51;" d="M107.885,5.162c17.489,0,27.535,31.824,27.535,65.324c0,33.499-10.046,65.322-27.535,65.322
		c-6.135,0-13.077-6.067-18.336-18.371c-5.262,12.304-12.202,18.371-18.337,18.371c-6.159,0-13.067-6.184-18.272-18.499
		c-4.566,12.423-11.337,20.176-19.096,20.176c-17.488,0-27.534-31.823-27.534-65.321c0-33.5,10.046-65.323,27.534-65.323
		c6.158,0,13.065,6.185,18.272,18.499C56.682,12.915,63.452,5.162,71.212,5.162c6.135,0,13.075,6.066,18.337,18.37
		C94.808,11.228,101.75,5.162,107.885,5.162z"/>
	<path style="fill:#4F4B50;" d="M107.896,5.203c17.438,0,27.483,31.78,27.483,65.284c0,33.503-10.046,65.281-27.483,65.281
		c-6.153,0-13.096-6.117-18.342-18.465c-5.248,12.348-12.189,18.465-18.341,18.465c-6.178,0-13.087-6.235-18.28-18.598
		c-4.561,12.479-11.336,20.275-19.099,20.275c-17.436,0-27.482-31.779-27.482-65.281c0-33.503,10.046-65.282,27.482-65.282
		c6.177,0,13.085,6.236,18.279,18.599c4.56-12.481,11.334-20.278,19.1-20.278c6.152,0,13.093,6.117,18.341,18.464
		C94.8,11.318,101.742,5.203,107.896,5.203z"/>
	<path style="fill:#4F4C50;" d="M107.905,5.243c17.387,0,27.434,31.735,27.434,65.242c0,33.507-10.047,65.241-27.434,65.241
		c-6.171,0-13.112-6.168-18.347-18.559c-5.235,12.391-12.177,18.559-18.347,18.559c-6.196,0-13.105-6.287-18.287-18.697
		c-4.554,12.536-11.333,20.375-19.102,20.375c-17.386,0-27.432-31.734-27.432-65.239c0-33.507,10.046-65.242,27.432-65.242
		c6.196,0,13.105,6.288,18.287,18.697C56.663,13.083,63.442,5.243,71.212,5.243c6.17,0,13.111,6.166,18.347,18.557
		C94.793,11.409,101.734,5.243,107.905,5.243z"/>
	<path style="fill:#504C50;" d="M107.915,5.283c17.335,0,27.383,31.69,27.383,65.202c0,33.511-10.048,65.2-27.383,65.2
		c-6.188,0-13.13-6.217-18.352-18.652c-5.224,12.436-12.164,18.652-18.352,18.652c-6.215,0-13.125-6.339-18.294-18.796
		c-4.547,12.591-11.332,20.475-19.104,20.475c-17.334,0-27.381-31.69-27.381-65.199c0-33.512,10.047-65.202,27.381-65.202
		c6.214,0,13.124,6.339,18.293,18.796C56.654,13.167,63.438,5.283,71.212,5.283c6.188,0,13.128,6.216,18.352,18.65
		C94.785,11.498,101.727,5.283,107.915,5.283z"/>
	<path style="fill:#504D50;" d="M107.926,5.324c17.283,0,27.331,31.646,27.331,65.161c0,33.515-10.048,65.159-27.331,65.159
		c-6.207,0-13.147-6.267-18.357-18.745c-5.21,12.479-12.151,18.745-18.356,18.745c-6.233,0-13.145-6.39-18.301-18.896
		c-4.541,12.648-11.33,20.575-19.107,20.575c-17.283,0-27.331-31.646-27.331-65.159c0-33.515,10.048-65.161,27.331-65.161
		c6.232,0,13.144,6.392,18.301,18.896c4.54-12.649,11.328-20.576,19.107-20.576c6.205,0,13.146,6.266,18.356,18.744
		C94.778,11.589,101.719,5.324,107.926,5.324z"/>
	<path style="fill:#504D4F;" d="M107.936,5.364c17.232,0,27.281,31.602,27.281,65.121c0,33.519-10.049,65.118-27.281,65.118
		c-6.225,0-13.165-6.316-18.361-18.838c-5.198,12.521-12.139,18.838-18.361,18.838c-6.252,0-13.165-6.441-18.309-18.994
		c-4.534,12.704-11.327,20.674-19.11,20.674c-17.231,0-27.279-31.601-27.279-65.117c0-33.52,10.048-65.121,27.279-65.121
		c6.251,0,13.164,6.443,18.308,18.996C56.636,13.335,63.428,5.364,71.213,5.364c6.223,0,13.163,6.315,18.361,18.839
		C94.771,11.68,101.711,5.364,107.936,5.364z"/>
	<path style="fill:#514E4F;" d="M107.945,5.404c17.182,0,27.23,31.557,27.23,65.081c0,33.522-10.049,65.077-27.23,65.077
		c-6.242,0-13.183-6.366-18.366-18.933c-5.187,12.566-12.126,18.933-18.367,18.933c-6.271,0-13.184-6.492-18.316-19.094
		c-4.528,12.761-11.325,20.773-19.113,20.773c-17.18,0-27.229-31.556-27.229-65.076c0-33.523,10.049-65.08,27.229-65.08
		c6.27,0,13.183,6.495,18.315,19.095C56.626,13.418,63.424,5.404,71.212,5.404c6.241,0,13.18,6.366,18.367,18.933
		C94.763,11.77,101.703,5.404,107.945,5.404z"/>
	<path style="fill:#514E4F;" d="M107.955,5.445c17.13,0,27.18,31.513,27.18,65.04c0,33.526-10.05,65.038-27.18,65.038
		c-6.26,0-13.199-6.417-18.371-19.027c-5.173,12.61-12.113,19.027-18.371,19.027c-6.289,0-13.203-6.546-18.323-19.193
		c-4.521,12.816-11.323,20.873-19.116,20.873c-17.129,0-27.178-31.512-27.178-65.036c0-33.527,10.049-65.04,27.178-65.04
		c6.288,0,13.202,6.547,18.323,19.194C56.617,13.503,63.419,5.445,71.213,5.445c6.258,0,13.198,6.416,18.371,19.026
		C94.756,11.86,101.695,5.445,107.955,5.445z"/>
	<path style="fill:#524F4F;" d="M107.965,5.485c17.079,0,27.129,31.468,27.129,64.999c0,33.53-10.05,64.997-27.129,64.997
		c-6.276,0-13.217-6.467-18.376-19.121c-5.161,12.654-12.101,19.121-18.376,19.121c-6.308,0-13.223-6.597-18.331-19.292
		c-4.515,12.872-11.322,20.973-19.119,20.973c-17.077,0-27.127-31.467-27.127-64.996c0-33.53,10.05-64.999,27.127-64.999
		c6.306,0,13.221,6.599,18.33,19.293c4.514-12.874,11.32-20.976,19.119-20.976c6.275,0,13.215,6.465,18.376,19.12
		C94.748,11.95,101.688,5.485,107.965,5.485z"/>
	<path style="fill:#524F4E;" d="M107.976,5.525c17.026,0,27.077,31.423,27.077,64.958c0,33.534-10.051,64.957-27.077,64.957
		c-6.295,0-13.235-6.517-18.382-19.214c-5.148,12.697-12.088,19.214-18.381,19.214c-6.326,0-13.242-6.648-18.338-19.392
		c-4.509,12.929-11.319,21.073-19.122,21.073c-17.025,0-27.076-31.423-27.076-64.956c0-33.534,10.05-64.958,27.076-64.958
		c6.325,0,13.242,6.651,18.338,19.393C56.599,13.67,63.409,5.525,71.213,5.525c6.293,0,13.232,6.515,18.381,19.214
		C94.74,12.041,101.681,5.525,107.976,5.525z"/>
	<path style="fill:#53504E;" d="M107.985,5.566c16.976,0,27.026,31.378,27.026,64.917c0,33.538-10.051,64.916-27.026,64.916
		c-6.312,0-13.252-6.566-18.386-19.308c-5.137,12.741-12.076,19.308-18.387,19.308c-6.344,0-13.261-6.7-18.345-19.491
		c-4.502,12.985-11.317,21.174-19.125,21.174c-16.974,0-27.025-31.379-27.025-64.916c0-33.538,10.051-64.917,27.025-64.917
		c6.344,0,13.261,6.702,18.345,19.492C56.59,13.754,63.404,5.566,71.213,5.566c6.311,0,13.25,6.565,18.387,19.307
		C94.733,12.131,101.674,5.566,107.985,5.566z"/>
	<path style="fill:#53504E;" d="M107.996,5.606c16.924,0,26.976,31.334,26.976,64.877c0,33.542-10.052,64.876-26.976,64.876
		c-6.33,0-13.271-6.617-18.392-19.402c-5.124,12.785-12.063,19.402-18.392,19.402c-6.363,0-13.281-6.753-18.352-19.592
		c-4.496,13.042-11.315,21.273-19.127,21.273c-16.923,0-26.975-31.334-26.975-64.875S16.81,7.29,33.733,7.29
		c6.362,0,13.28,6.754,18.352,19.591C56.58,13.838,63.399,5.606,71.213,5.606c6.328,0,13.268,6.615,18.392,19.401
		C94.726,12.221,101.666,5.606,107.996,5.606z"/>
	<path style="fill:#54514D;" d="M108.006,5.647c16.873,0,26.925,31.29,26.925,64.836c0,33.546-10.052,64.835-26.925,64.835
		c-6.348,0-13.287-6.666-18.396-19.496c-5.111,12.83-12.05,19.496-18.396,19.496c-6.381,0-13.3-6.805-18.359-19.69
		c-4.489,13.099-11.313,21.373-19.13,21.373c-16.872,0-26.923-31.29-26.923-64.834c0-33.546,10.052-64.836,26.923-64.836
		c6.38,0,13.299,6.806,18.359,19.69c4.489-13.1,11.313-21.375,19.131-21.375c6.347,0,13.285,6.665,18.396,19.495
		C94.719,12.312,101.658,5.647,108.006,5.647z"/>
	<path style="fill:#54514D;" d="M108.016,5.687c16.821,0,26.874,31.246,26.874,64.796s-10.053,64.794-26.874,64.794
		c-6.365,0-13.305-6.716-18.401-19.59c-5.099,12.874-12.037,19.59-18.401,19.59c-6.399,0-13.319-6.855-18.366-19.789
		c-4.483,13.154-11.312,21.472-19.134,21.472c-16.82,0-26.873-31.245-26.873-64.793c0-33.55,10.052-64.795,26.873-64.795
		c6.399,0,13.319,6.858,18.367,19.79C56.562,14.006,63.39,5.687,71.213,5.687c6.364,0,13.303,6.715,18.401,19.589
		C94.711,12.401,101.65,5.687,108.016,5.687z"/>
	<path style="fill:#54524D;" d="M108.025,5.728c16.771,0,26.823,31.201,26.823,64.755s-10.053,64.754-26.823,64.754
		c-6.383,0-13.322-6.766-18.406-19.684c-5.086,12.918-12.024,19.684-18.406,19.684c-6.418,0-13.339-6.907-18.373-19.889
		c-4.477,13.211-11.31,21.572-19.137,21.572c-16.769,0-26.822-31.201-26.822-64.752c0-33.554,10.053-64.755,26.822-64.755
		c6.417,0,13.338,6.91,18.374,19.889C56.553,14.09,63.385,5.728,71.213,5.728c6.382,0,13.32,6.765,18.406,19.683
		C94.703,12.492,101.643,5.728,108.025,5.728z"/>
	<path style="fill:#55524D;" d="M108.035,5.768c16.719,0,26.773,31.157,26.773,64.715c0,33.558-10.055,64.713-26.773,64.713
		c-6.4,0-13.339-6.815-18.41-19.777c-5.074,12.962-12.013,19.777-18.411,19.777c-6.438,0-13.359-6.959-18.382-19.987
		c-4.469,13.267-11.307,21.672-19.139,21.672c-16.718,0-26.771-31.156-26.771-64.712c0-33.558,10.054-64.715,26.771-64.715
		c6.436,0,13.357,6.961,18.381,19.989C56.543,14.174,63.38,5.768,71.214,5.768c6.398,0,13.337,6.814,18.411,19.776
		C94.696,12.582,101.635,5.768,108.035,5.768z"/>
	<path style="fill:#55534C;" d="M108.045,5.808c16.668,0,26.723,31.112,26.723,64.674c0,33.561-10.055,64.673-26.723,64.673
		c-6.418,0-13.356-6.866-18.416-19.871c-5.061,13.005-11.998,19.871-18.416,19.871c-6.455,0-13.378-7.012-18.388-20.088
		c-4.464,13.323-11.305,21.772-19.142,21.772c-16.666,0-26.72-31.112-26.72-64.672c0-33.562,10.054-64.674,26.72-64.674
		c6.455,0,13.377,7.013,18.388,20.088C56.535,14.258,63.375,5.808,71.213,5.808c6.417,0,13.355,6.865,18.416,19.87
		C94.688,12.673,101.627,5.808,108.045,5.808z"/>
	<path style="fill:#56534C;" d="M108.056,5.849c16.616,0,26.671,31.067,26.671,64.633c0,33.565-10.055,64.632-26.671,64.632
		c-6.437,0-13.374-6.916-18.421-19.965c-5.049,13.049-11.986,19.965-18.421,19.965c-6.473,0-13.397-7.063-18.396-20.187
		c-4.457,13.379-11.303,21.871-19.145,21.871c-16.615,0-26.669-31.067-26.669-64.631c0-33.565,10.054-64.633,26.669-64.633
		c6.474,0,13.396,7.064,18.396,20.188C56.525,14.342,63.37,5.849,71.213,5.849c6.435,0,13.373,6.915,18.421,19.964
		C94.682,12.763,101.619,5.849,108.056,5.849z"/>
	<path style="fill:#56544C;" d="M108.065,5.889c16.564,0,26.62,31.023,26.62,64.593c0,33.569-10.056,64.591-26.62,64.591
		c-6.453,0-13.392-6.966-18.426-20.059c-5.036,13.093-11.974,20.059-18.426,20.059c-6.492,0-13.417-7.115-18.403-20.286
		c-4.451,13.436-11.301,21.972-19.148,21.972c-16.563,0-26.618-31.023-26.618-64.591c0-33.569,10.055-64.592,26.618-64.592
		c6.492,0,13.416,7.116,18.402,20.286c4.45-13.437,11.301-21.973,19.148-21.973c6.452,0,13.39,6.964,18.426,20.057
		C94.674,12.854,101.612,5.889,108.065,5.889z"/>
	<path style="fill:#57544B;" d="M108.075,5.93c16.514,0,26.569,30.979,26.569,64.552s-10.056,64.551-26.569,64.551
		c-6.471,0-13.409-7.016-18.431-20.152c-5.023,13.137-11.961,20.152-18.431,20.152c-6.511,0-13.437-7.166-18.41-20.385
		c-4.444,13.491-11.299,22.07-19.15,22.07c-16.513,0-26.568-30.979-26.568-64.549c0-33.573,10.055-64.552,26.568-64.552
		c6.51,0,13.435,7.167,18.409,20.386C56.507,14.51,63.361,5.93,71.214,5.93c6.47,0,13.407,7.014,18.431,20.151
		C94.666,12.943,101.604,5.93,108.075,5.93z"/>
	<path style="fill:#57554B;" d="M108.086,5.97c16.462,0,26.518,30.935,26.518,64.512s-10.056,64.51-26.518,64.51
		c-6.489,0-13.427-7.065-18.437-20.245c-5.011,13.18-11.948,20.245-18.436,20.245c-6.529,0-13.456-7.218-18.417-20.484
		c-4.438,13.548-11.297,22.171-19.154,22.171c-16.461,0-26.517-30.934-26.517-64.509c0-33.577,10.056-64.511,26.517-64.511
		c6.529,0,13.455,7.219,18.417,20.485C56.497,14.593,63.356,5.97,71.214,5.97c6.487,0,13.425,7.064,18.436,20.245
		C94.659,13.033,101.597,5.97,108.086,5.97z"/>
	<path style="fill:#58554B;" d="M108.096,6.01c16.41,0,26.468,30.89,26.468,64.471s-10.058,64.47-26.468,64.47
		c-6.507,0-13.444-7.115-18.441-20.34c-4.998,13.225-11.936,20.34-18.44,20.34c-6.548,0-13.475-7.271-18.424-20.584
		c-4.432,13.604-11.295,22.27-19.157,22.27c-16.41,0-26.466-30.889-26.466-64.468c0-33.581,10.057-64.471,26.466-64.471
		c6.547,0,13.474,7.271,18.424,20.585C56.488,14.677,63.352,6.01,71.214,6.01c6.505,0,13.442,7.114,18.44,20.339
		C94.651,13.124,101.589,6.01,108.096,6.01z"/>
	<path style="fill:#58564A;" d="M108.105,6.05c16.359,0,26.417,30.846,26.417,64.431c0,33.584-10.058,64.429-26.417,64.429
		c-6.524,0-13.461-7.166-18.445-20.434c-4.986,13.268-11.924,20.434-18.446,20.434c-6.566,0-13.495-7.322-18.432-20.684
		c-4.425,13.661-11.293,22.371-19.159,22.371c-16.358,0-26.415-30.846-26.415-64.429c0-33.584,10.057-64.43,26.415-64.43
		c6.565,0,13.494,7.323,18.432,20.684C56.479,14.761,63.347,6.05,71.214,6.05c6.522,0,13.46,7.165,18.446,20.433
		C94.645,13.214,101.581,6.05,108.105,6.05z"/>
	<path style="fill:#58564A;" d="M108.115,6.091c16.309,0,26.366,30.801,26.366,64.39s-10.058,64.389-26.366,64.389
		c-6.541,0-13.479-7.216-18.45-20.527c-4.974,13.312-11.91,20.527-18.451,20.527c-6.585,0-13.514-7.373-18.439-20.783
		c-4.418,13.718-11.291,22.471-19.162,22.471c-16.307,0-26.364-30.801-26.364-64.387c0-33.589,10.058-64.39,26.364-64.39
		c6.584,0,13.513,7.375,18.438,20.783C56.47,14.845,63.342,6.091,71.214,6.091c6.541,0,13.477,7.214,18.451,20.526
		C94.637,13.305,101.574,6.091,108.115,6.091z"/>
	<path style="fill:#59574A;" d="M108.125,6.131c16.257,0,26.315,30.757,26.315,64.35s-10.059,64.348-26.315,64.348
		c-6.559,0-13.496-7.266-18.455-20.621c-4.961,13.355-11.898,20.621-18.456,20.621c-6.603,0-13.533-7.426-18.446-20.882
		c-4.412,13.773-11.289,22.57-19.165,22.57c-16.255,0-26.313-30.757-26.313-64.347c0-33.592,10.058-64.349,26.313-64.349
		c6.602,0,13.532,7.426,18.446,20.882C56.461,14.929,63.337,6.131,71.214,6.131c6.558,0,13.495,7.264,18.456,20.621
		C94.629,13.395,101.566,6.131,108.125,6.131z"/>
	<path style="fill:#595749;" d="M108.136,6.172c16.205,0,26.265,30.711,26.265,64.309c0,33.596-10.06,64.307-26.265,64.307
		c-6.577,0-13.515-7.314-18.461-20.715c-4.949,13.4-11.886,20.715-18.461,20.715c-6.621,0-13.553-7.477-18.453-20.98
		c-4.406,13.829-11.288,22.669-19.168,22.669c-16.205,0-26.263-30.712-26.263-64.306c0-33.596,10.059-64.308,26.263-64.308
		c6.621,0,13.552,7.479,18.454,20.982C56.451,15.013,63.332,6.172,71.214,6.172c6.575,0,13.512,7.313,18.461,20.713
		C94.621,13.485,101.559,6.172,108.136,6.172z"/>
	<path style="fill:#5A5849;" d="M108.146,6.212c16.153,0,26.214,30.667,26.214,64.268c0,33.6-10.061,64.266-26.214,64.266
		c-6.595,0-13.531-7.365-18.466-20.809c-4.937,13.443-11.872,20.809-18.465,20.809c-6.64,0-13.572-7.528-18.46-21.08
		c-4.399,13.886-11.285,22.77-19.171,22.77c-16.153,0-26.212-30.667-26.212-64.266c0-33.6,10.059-64.268,26.212-64.268
		c6.639,0,13.571,7.531,18.46,21.082C56.442,15.097,63.327,6.212,71.214,6.212c6.593,0,13.529,7.364,18.465,20.808
		C94.614,13.576,101.551,6.212,108.146,6.212z"/>
	<path style="fill:#5A5849;" d="M108.155,6.252c16.103,0,26.163,30.623,26.163,64.227s-10.061,64.226-26.163,64.226
		c-6.612,0-13.549-7.414-18.47-20.901c-4.924,13.487-11.86,20.901-18.471,20.901c-6.659,0-13.591-7.58-18.467-21.18
		c-4.393,13.942-11.283,22.869-19.174,22.869c-16.102,0-26.161-30.622-26.161-64.225c0-33.604,10.06-64.227,26.161-64.227
		c6.657,0,13.591,7.582,18.468,21.181C56.433,15.181,63.322,6.252,71.214,6.252c6.611,0,13.547,7.414,18.471,20.901
		C94.606,13.666,101.543,6.252,108.155,6.252z"/>
	<path style="fill:#5B5948;" d="M108.166,6.293c16.051,0,26.111,30.578,26.111,64.187s-10.061,64.186-26.111,64.186
		c-6.63,0-13.566-7.465-18.477-20.996c-4.91,13.531-11.846,20.996-18.475,20.996c-6.678,0-13.611-7.632-18.476-21.279
		c-4.386,13.998-11.28,22.969-19.176,22.969c-16.05,0-26.11-30.578-26.11-64.185c0-33.607,10.06-64.186,26.11-64.186
		c6.676,0,13.61,7.634,18.475,21.28c4.386-14,11.279-22.971,19.177-22.971c6.629,0,13.564,7.463,18.475,20.995
		C94.6,13.756,101.536,6.293,108.166,6.293z"/>
	<path style="fill:#5B5948;" d="M108.176,6.333c16,0,26.061,30.534,26.061,64.146c0,33.611-10.061,64.145-26.061,64.145
		c-6.647,0-13.584-7.515-18.48-21.09c-4.898,13.575-11.835,21.09-18.48,21.09c-6.696,0-13.631-7.684-18.482-21.379
		c-4.38,14.055-11.279,23.069-19.179,23.069c-15.999,0-26.06-30.534-26.06-64.144c0-33.611,10.062-64.146,26.06-64.146
		c6.694,0,13.629,7.686,18.482,21.38c4.379-14.056,11.277-23.071,19.18-23.071c6.646,0,13.582,7.514,18.48,21.089
		C94.592,13.846,101.528,6.333,108.176,6.333z"/>
	<path style="fill:#5C5A47;" d="M108.186,6.374c15.948,0,26.011,30.489,26.011,64.105s-10.063,64.104-26.011,64.104
		c-6.665,0-13.602-7.564-18.485-21.184c-4.886,13.619-11.821,21.184-18.485,21.184c-6.714,0-13.649-7.735-18.489-21.478
		c-4.374,14.111-11.277,23.169-19.183,23.169c-15.947,0-26.009-30.49-26.009-64.103c0-33.616,10.062-64.106,26.009-64.106
		c6.713,0,13.649,7.738,18.489,21.479c4.374-14.112,11.276-23.17,19.183-23.17c6.664,0,13.6,7.563,18.485,21.182
		C94.584,13.937,101.521,6.374,108.186,6.374z"/>
	<path style="fill:#5C5A47;" d="M108.195,6.414c15.897,0,25.96,30.445,25.96,64.065c0,33.62-10.063,64.064-25.96,64.064
		c-6.683,0-13.618-7.615-18.49-21.277c-4.873,13.662-11.809,21.277-18.49,21.277c-6.732,0-13.669-7.788-18.497-21.578
		c-4.367,14.168-11.275,23.269-19.185,23.269c-15.896,0-25.958-30.444-25.958-64.062c0-33.62,10.062-64.065,25.958-64.065
		c6.731,0,13.668,7.789,18.497,21.578C56.396,15.516,63.304,6.414,71.215,6.414c6.682,0,13.617,7.613,18.49,21.276
		C94.577,14.026,101.513,6.414,108.195,6.414z"/>
	<path style="fill:#5D5B47;" d="M108.205,6.454c15.846,0,25.909,30.4,25.909,64.024c0,33.623-10.063,64.023-25.909,64.023
		c-6.7,0-13.636-7.665-18.495-21.371c-4.861,13.706-11.796,21.371-18.495,21.371c-6.751,0-13.688-7.84-18.504-21.677
		c-4.36,14.224-11.272,23.368-19.188,23.368c-15.845,0-25.907-30.4-25.907-64.021c0-33.623,10.062-64.024,25.907-64.024
		c6.75,0,13.688,7.841,18.504,21.677C56.387,15.6,63.299,6.454,71.215,6.454c6.699,0,13.634,7.663,18.495,21.37
		C94.569,14.117,101.505,6.454,108.205,6.454z"/>
	<path style="fill:#5D5B46;" d="M108.216,6.495c15.794,0,25.857,30.356,25.857,63.984c0,33.627-10.063,63.982-25.857,63.982
		c-6.718,0-13.653-7.715-18.501-21.465c-4.849,13.75-11.783,21.465-18.5,21.465c-6.77,0-13.708-7.891-18.511-21.776
		c-4.354,14.28-11.271,23.468-19.191,23.468c-15.793,0-25.856-30.355-25.856-63.98c0-33.627,10.063-63.983,25.856-63.983
		c6.768,0,13.708,7.893,18.511,21.776c4.354-14.281,11.27-23.47,19.191-23.47c6.717,0,13.651,7.713,18.5,21.463
		C94.563,14.208,101.498,6.495,108.216,6.495z"/>
	<path style="fill:#5E5C46;" d="M108.226,6.535c15.743,0,25.807,30.312,25.807,63.943c0,33.631-10.063,63.941-25.807,63.941
		c-6.735,0-13.671-7.765-18.505-21.559c-4.837,13.794-11.771,21.559-18.505,21.559c-6.788,0-13.728-7.942-18.518-21.875
		c-4.349,14.336-11.269,23.567-19.194,23.567c-15.743,0-25.806-30.312-25.806-63.94c0-33.631,10.063-63.943,25.806-63.943
		c6.787,0,13.726,7.944,18.518,21.876c4.347-14.338,11.268-23.57,19.194-23.57c6.734,0,13.668,7.763,18.505,21.558
		C94.555,14.298,101.49,6.535,108.226,6.535z"/>
	<path style="fill:#5F5C45;" d="M108.235,6.575c15.692,0,25.757,30.268,25.757,63.903s-10.064,63.901-25.757,63.901
		c-6.753,0-13.688-7.814-18.51-21.652c-4.824,13.838-11.759,21.652-18.511,21.652c-6.806,0-13.746-7.994-18.525-21.974
		c-4.341,14.392-11.267,23.667-19.196,23.667c-15.69,0-25.755-30.268-25.755-63.9c0-33.634,10.064-63.902,25.755-63.902
		c6.806,0,13.746,7.997,18.525,21.976c4.341-14.394,11.266-23.67,19.196-23.67c6.752,0,13.687,7.813,18.511,21.651
		C94.547,14.388,101.482,6.575,108.235,6.575z"/>
	<path style="fill:#5F5D45;" d="M108.246,6.616c15.641,0,25.705,30.223,25.705,63.862s-10.064,63.86-25.705,63.86
		c-6.771,0-13.706-7.864-18.516-21.746c-4.812,13.882-11.746,21.746-18.515,21.746c-6.825,0-13.767-8.046-18.533-22.073
		c-4.335,14.448-11.265,23.767-19.199,23.767c-15.64,0-25.704-30.222-25.704-63.859S17.844,8.311,33.483,8.311
		c6.824,0,13.765,8.048,18.532,22.075c4.334-14.45,11.264-23.77,19.2-23.77c6.769,0,13.703,7.863,18.515,21.745
		C94.54,14.478,101.475,6.616,108.246,6.616z"/>
	<path style="fill:#605D44;" d="M108.256,6.656c15.589,0,25.654,30.178,25.654,63.821c0,33.643-10.065,63.819-25.654,63.819
		c-6.789,0-13.724-7.914-18.521-21.84c-4.799,13.926-11.732,21.84-18.52,21.84c-6.843,0-13.786-8.098-18.54-22.172
		c-4.329,14.504-11.263,23.866-19.203,23.866c-15.588,0-25.653-30.178-25.653-63.818c0-33.643,10.064-63.821,25.653-63.821
		c6.842,0,13.785,8.1,18.54,22.174C56.341,16.02,63.274,6.656,71.215,6.656c6.788,0,13.721,7.913,18.52,21.839
		C94.532,14.569,101.467,6.656,108.256,6.656z"/>
	<path style="fill:#605E44;" d="M108.266,6.697c15.538,0,25.604,30.133,25.604,63.781c0,33.646-10.065,63.778-25.604,63.778
		c-6.807,0-13.74-7.964-18.525-21.933c-4.786,13.969-11.72,21.933-18.525,21.933c-6.862,0-13.805-8.148-18.547-22.271
		c-4.322,14.561-11.261,23.967-19.205,23.967c-15.537,0-25.603-30.134-25.603-63.778c0-33.646,10.065-63.78,25.603-63.78
		c6.861,0,13.804,8.151,18.547,22.273C56.332,16.104,63.27,6.697,71.215,6.697c6.805,0,13.739,7.962,18.525,21.932
		C94.525,14.659,101.459,6.697,108.266,6.697z"/>
	<path style="fill:#615E44;" d="M108.275,6.737c15.487,0,25.553,30.089,25.553,63.74c0,33.65-10.065,63.739-25.553,63.739
		c-6.824,0-13.758-8.015-18.529-22.027c-4.774,14.013-11.708,22.027-18.53,22.027c-6.88,0-13.825-8.201-18.555-22.372
		c-4.315,14.617-11.258,24.066-19.208,24.066c-15.485,0-25.552-30.089-25.552-63.737c0-33.65,10.066-63.74,25.552-63.74
		c6.879,0,13.823,8.203,18.555,22.373C56.323,16.188,63.265,6.737,71.216,6.737c6.822,0,13.756,8.012,18.53,22.026
		C94.518,14.749,101.451,6.737,108.275,6.737z"/>
	<path style="fill:#615F43;" d="M108.285,6.777c15.436,0,25.503,30.045,25.503,63.699s-10.067,63.698-25.503,63.698
		c-6.842,0-13.775-8.063-18.535-22.121c-4.761,14.058-11.694,22.121-18.534,22.121c-6.899,0-13.844-8.253-18.562-22.471
		c-4.309,14.673-11.256,24.166-19.21,24.166c-15.435,0-25.501-30.045-25.501-63.696c0-33.654,10.066-63.7,25.501-63.7
		c6.897,0,13.843,8.255,18.562,22.472C56.313,16.271,63.26,6.777,71.216,6.777c6.84,0,13.773,8.063,18.534,22.12
		C94.51,14.839,101.443,6.777,108.285,6.777z"/>
	<path style="fill:#615F43;" d="M108.296,6.817c15.384,0,25.451,30,25.451,63.659c0,33.658-10.067,63.658-25.451,63.658
		c-6.859,0-13.793-8.114-18.54-22.216c-4.749,14.102-11.683,22.216-18.54,22.216c-6.917,0-13.863-8.305-18.568-22.57
		c-4.304,14.729-11.255,24.266-19.214,24.266c-15.382,0-25.45-30-25.45-63.656c0-33.658,10.067-63.659,25.45-63.659
		c6.917,0,13.862,8.307,18.569,22.571c4.302-14.73,11.253-24.269,19.214-24.269c6.857,0,13.791,8.112,18.54,22.214
		C94.503,14.93,101.437,6.817,108.296,6.817z"/>
	<path style="fill:#626042;" d="M108.306,6.858c15.333,0,25.4,29.956,25.4,63.619c0,33.662-10.067,63.617-25.4,63.617
		c-6.877,0-13.811-8.164-18.545-22.309c-4.737,14.145-11.669,22.309-18.545,22.309c-6.936,0-13.883-8.357-18.576-22.67
		c-4.296,14.786-11.253,24.365-19.216,24.365c-15.332,0-25.399-29.955-25.399-63.615c0-33.662,10.068-63.618,25.399-63.618
		c6.935,0,13.882,8.358,18.576,22.671C56.295,16.439,63.251,6.858,71.216,6.858c6.876,0,13.808,8.163,18.545,22.308
		C94.495,15.021,101.429,6.858,108.306,6.858z"/>
	<path style="fill:#626042;" d="M108.315,6.898c15.281,0,25.351,29.911,25.351,63.578c0,33.666-10.069,63.576-25.351,63.576
		c-6.895,0-13.827-8.214-18.55-22.402c-4.725,14.188-11.656,22.402-18.55,22.402c-6.954,0-13.902-8.408-18.583-22.77
		c-4.29,14.843-11.251,24.466-19.22,24.466c-15.28,0-25.349-29.911-25.349-63.575c0-33.666,10.068-63.577,25.349-63.577
		c6.953,0,13.901,8.41,18.583,22.77c4.29-14.843,11.25-24.468,19.22-24.468c6.894,0,13.825,8.212,18.55,22.401
		C94.488,15.11,101.421,6.898,108.315,6.898z"/>
	<path style="fill:#636141;" d="M108.325,6.938c15.23,0,25.3,29.867,25.3,63.538s-10.069,63.536-25.3,63.536
		c-6.912,0-13.845-8.264-18.555-22.496c-4.712,14.232-11.644,22.496-18.554,22.496c-6.973,0-13.922-8.46-18.591-22.869
		c-4.283,14.899-11.248,24.566-19.222,24.566c-15.229,0-25.298-29.867-25.298-63.535c0-33.669,10.069-63.536,25.298-63.536
		c6.972,0,13.921,8.462,18.59,22.869c4.283-14.9,11.248-24.568,19.223-24.568c6.911,0,13.842,8.263,18.554,22.496
		C94.48,15.201,101.413,6.938,108.325,6.938z"/>
	<path style="fill:#636141;" d="M108.336,6.979c15.178,0,25.248,29.822,25.248,63.496s-10.07,63.495-25.248,63.495
		c-6.931,0-13.863-8.313-18.561-22.59c-4.699,14.276-11.631,22.59-18.56,22.59c-6.991,0-13.941-8.512-18.597-22.968
		c-4.277,14.955-11.247,24.665-19.226,24.665c-15.177,0-25.247-29.822-25.247-63.493c0-33.674,10.069-63.497,25.247-63.497
		c6.991,0,13.94,8.513,18.598,22.968C56.268,16.69,63.236,6.979,71.216,6.979c6.929,0,13.86,8.312,18.56,22.589
		C94.473,15.291,101.405,6.979,108.336,6.979z"/>
	<path style="fill:#646240;" d="M108.346,7.02c15.127,0,25.197,29.778,25.197,63.456c0,33.678-10.07,63.454-25.197,63.454
		c-6.947,0-13.88-8.363-18.564-22.684c-4.688,14.32-11.619,22.684-18.565,22.684c-7.009,0-13.96-8.563-18.604-23.066
		c-4.271,15.011-11.245,24.765-19.228,24.765c-15.126,0-25.196-29.778-25.196-63.453c0-33.678,10.07-63.456,25.196-63.456
		c7.008,0,13.959,8.565,18.605,23.068C56.258,16.774,63.231,7.02,71.216,7.02c6.946,0,13.878,8.361,18.565,22.683
		C94.466,15.381,101.398,7.02,108.346,7.02z"/>
	<path style="fill:#646240;" d="M108.355,7.06c15.076,0,25.146,29.733,25.146,63.416c0,33.682-10.07,63.413-25.146,63.413
		c-6.965,0-13.897-8.413-18.569-22.777c-4.675,14.364-11.606,22.777-18.569,22.777c-7.028,0-13.98-8.614-18.613-23.166
		c-4.264,15.067-11.243,24.865-19.231,24.865c-15.075,0-25.145-29.733-25.145-63.413c0-33.681,10.07-63.415,25.145-63.415
		c7.027,0,13.979,8.617,18.612,23.167C56.249,16.858,63.227,7.06,71.217,7.06c6.963,0,13.895,8.412,18.569,22.776
		C94.458,15.471,101.391,7.06,108.355,7.06z"/>
	<path style="fill:#65633F;" d="M108.365,7.101c15.025,0,25.097,29.688,25.097,63.375c0,33.685-10.071,63.373-25.097,63.373
		c-6.982,0-13.914-8.463-18.574-22.871c-4.661,14.408-11.594,22.871-18.575,22.871c-7.046,0-14-8.666-18.62-23.265
		c-4.257,15.123-11.24,24.964-19.233,24.964c-15.023,0-25.094-29.688-25.094-63.371c0-33.686,10.071-63.375,25.094-63.375
		c7.046,0,13.998,8.669,18.62,23.267C56.239,16.942,63.222,7.101,71.216,7.101c6.981,0,13.914,8.461,18.575,22.87
		C94.451,15.562,101.383,7.101,108.365,7.101z"/>
	<path style="fill:#65633F;" d="M108.376,7.141c14.973,0,25.044,29.645,25.044,63.334s-10.071,63.333-25.044,63.333
		c-7.001,0-13.933-8.513-18.58-22.965c-4.649,14.452-11.58,22.965-18.58,22.965c-7.065,0-14.019-8.719-18.626-23.365
		c-4.251,15.181-11.238,25.064-19.236,25.064c-14.972,0-25.044-29.645-25.044-63.331c0-33.689,10.072-63.334,25.044-63.334
		c7.064,0,14.018,8.721,18.626,23.365C56.23,17.026,63.217,7.141,71.216,7.141c7,0,13.93,8.512,18.58,22.964
		C94.443,15.652,101.375,7.141,108.376,7.141z"/>
	<path style="fill:#66643F;" d="M108.386,7.181c14.922,0,24.994,29.601,24.994,63.294s-10.072,63.292-24.994,63.292
		c-7.018,0-13.95-8.563-18.585-23.059c-4.637,14.495-11.567,23.059-18.584,23.059c-7.084,0-14.038-8.771-18.634-23.464
		c-4.245,15.236-11.236,25.164-19.24,25.164c-14.921,0-24.993-29.601-24.993-63.291c0-33.693,10.071-63.293,24.993-63.293
		c7.083,0,14.037,8.771,18.634,23.465C56.221,17.11,63.212,7.181,71.217,7.181c7.017,0,13.947,8.562,18.584,23.059
		C94.436,15.742,101.368,7.181,108.386,7.181z"/>
	<path style="fill:#67643E;" d="M108.396,7.222c14.87,0,24.943,29.556,24.943,63.253s-10.073,63.251-24.943,63.251
		c-7.035,0-13.967-8.613-18.589-23.152c-4.625,14.539-11.556,23.152-18.59,23.152c-7.103,0-14.058-8.821-18.642-23.563
		c-4.238,15.293-11.234,25.264-19.242,25.264c-14.869,0-24.941-29.556-24.941-63.25c0-33.696,10.072-63.252,24.941-63.252
		c7.102,0,14.057,8.824,18.642,23.564C56.212,17.194,63.207,7.222,71.217,7.222c7.034,0,13.965,8.611,18.59,23.151
		C94.429,15.833,101.36,7.222,108.396,7.222z"/>
	<path style="fill:#67653E;" d="M108.405,7.262c14.819,0,24.894,29.511,24.894,63.212c0,33.701-10.074,63.21-24.894,63.21
		c-7.053,0-13.984-8.663-18.594-23.246c-4.612,14.583-11.543,23.246-18.595,23.246c-7.12,0-14.077-8.874-18.648-23.662
		c-4.231,15.349-11.232,25.363-19.245,25.363c-14.818,0-24.891-29.511-24.891-63.21c0-33.7,10.073-63.211,24.891-63.211
		c7.12,0,14.076,8.875,18.648,23.664c4.231-15.35,11.231-25.366,19.245-25.366c7.052,0,13.982,8.661,18.595,23.246
		C94.421,15.923,101.353,7.262,108.405,7.262z"/>
	<path style="fill:#68653D;" d="M108.416,7.302c14.768,0,24.842,29.467,24.842,63.172c0,33.705-10.074,63.169-24.842,63.169
		c-7.071,0-14.002-8.712-18.6-23.34c-4.6,14.628-11.529,23.34-18.6,23.34c-7.139,0-14.096-8.925-18.655-23.762
		c-4.226,15.405-11.23,25.464-19.248,25.464c-14.767,0-24.84-29.467-24.84-63.17c0-33.704,10.073-63.171,24.84-63.171
		c7.138,0,14.095,8.928,18.655,23.763C56.194,17.362,63.198,7.302,71.217,7.302c7.07,0,14,8.711,18.6,23.339
		C94.414,16.014,101.345,7.302,108.416,7.302z"/>
	<path style="fill:#68663D;" d="M108.426,7.343c14.717,0,24.791,29.422,24.791,63.131s-10.074,63.13-24.791,63.13
		c-7.089,0-14.02-8.763-18.604-23.434c-4.587,14.671-11.517,23.434-18.604,23.434c-7.157,0-14.116-8.978-18.663-23.861
		c-4.219,15.461-11.228,25.563-19.251,25.563c-14.715,0-24.789-29.422-24.789-63.128c0-33.708,10.074-63.131,24.789-63.131
		c7.157,0,14.115,8.979,18.664,23.862c4.218-15.462,11.227-25.565,19.25-25.565c7.088,0,14.018,8.761,18.604,23.432
		C94.406,16.104,101.337,7.343,108.426,7.343z"/>
	<path style="fill:#69663C;" d="M108.436,7.383c14.665,0,24.74,29.378,24.74,63.091c0,33.712-10.075,63.089-24.74,63.089
		c-7.106,0-14.037-8.813-18.609-23.527c-4.574,14.715-11.504,23.527-18.609,23.527c-7.176,0-14.135-9.029-18.67-23.961
		c-4.212,15.518-11.226,25.663-19.254,25.663c-14.664,0-24.738-29.378-24.738-63.088c0-33.712,10.075-63.09,24.738-63.09
		c7.175,0,14.135,9.031,18.67,23.961C56.175,17.53,63.188,7.383,71.217,7.383c7.105,0,14.035,8.811,18.609,23.526
		C94.398,16.194,101.329,7.383,108.436,7.383z"/>
	<path style="fill:#69673C;" d="M108.446,7.423c14.613,0,24.688,29.333,24.688,63.05s-10.075,63.048-24.688,63.048
		c-7.124,0-14.056-8.862-18.615-23.621c-4.562,14.759-11.491,23.621-18.614,23.621c-7.195,0-14.155-9.081-18.678-24.06
		c-4.206,15.573-11.224,25.762-19.256,25.762c-14.613,0-24.688-29.333-24.688-63.047c0-33.716,10.075-63.05,24.688-63.05
		c7.193,0,14.153,9.083,18.677,24.062C56.166,17.614,63.184,7.423,71.217,7.423c7.123,0,14.052,8.861,18.614,23.62
		C94.391,16.284,101.322,7.423,108.446,7.423z"/>
	<path style="fill:#6A673B;" d="M108.456,7.464c14.562,0,24.638,29.288,24.638,63.009c0,33.72-10.076,63.007-24.638,63.007
		c-7.142,0-14.072-8.912-18.619-23.715c-4.55,14.803-11.479,23.715-18.62,23.715c-7.213,0-14.174-9.132-18.684-24.159
		c-4.2,15.63-11.223,25.862-19.26,25.862c-14.562,0-24.637-29.288-24.637-63.007c0-33.72,10.076-63.009,24.637-63.009
		c7.211,0,14.172,9.135,18.684,24.16c4.199-15.63,11.221-25.864,19.259-25.864c7.141,0,14.07,8.911,18.62,23.714
		C94.384,16.374,101.314,7.464,108.456,7.464z"/>
	<path style="fill:#6A683B;" d="M108.466,7.504c14.511,0,24.588,29.244,24.588,62.969s-10.077,62.967-24.588,62.967
		c-7.159,0-14.09-8.962-18.624-23.809c-4.537,14.847-11.467,23.809-18.625,23.809c-7.231,0-14.193-9.184-18.692-24.258
		c-4.193,15.686-11.22,25.962-19.263,25.962c-14.51,0-24.586-29.244-24.586-62.966c0-33.724,10.076-62.969,24.586-62.969
		c7.23,0,14.193,9.187,18.692,24.26C56.148,17.781,63.174,7.504,71.217,7.504c7.158,0,14.087,8.961,18.625,23.808
		C94.376,16.465,101.307,7.504,108.466,7.504z"/>
	<path style="fill:#6B683A;" d="M108.476,7.544c14.46,0,24.536,29.2,24.536,62.928c0,33.728-10.076,62.927-24.536,62.927
		c-7.177,0-14.106-9.013-18.629-23.903c-4.524,14.891-11.454,23.903-18.629,23.903c-7.25,0-14.212-9.236-18.699-24.358
		c-4.188,15.742-11.218,26.063-19.266,26.063c-14.458,0-24.535-29.2-24.535-62.926C8.718,38.45,18.794,9.25,33.253,9.25
		c7.249,0,14.212,9.238,18.699,24.358C56.138,17.865,63.169,7.544,71.217,7.544c7.175,0,14.105,9.011,18.629,23.901
		C94.369,16.555,101.299,7.544,108.476,7.544z"/>
	<path style="fill:#6B693A;" d="M108.485,7.585c14.409,0,24.486,29.155,24.486,62.888c0,33.731-10.077,62.886-24.486,62.886
		c-7.194,0-14.124-9.063-18.634-23.996c-4.512,14.934-11.44,23.996-18.634,23.996c-7.269,0-14.232-9.288-18.707-24.458
		c-4.18,15.799-11.216,26.162-19.268,26.162c-14.407,0-24.484-29.155-24.484-62.885c0-33.731,10.077-62.887,24.484-62.887
		c7.267,0,14.231,9.29,18.706,24.458c4.18-15.8,11.215-26.164,19.269-26.164c7.193,0,14.122,9.061,18.634,23.995
		C94.361,16.646,101.291,7.585,108.485,7.585z"/>
	<path style="fill:#6C6939;" d="M108.496,7.625c14.356,0,24.435,29.111,24.435,62.847c0,33.736-10.078,62.845-24.435,62.845
		c-7.213,0-14.143-9.112-18.64-24.09c-4.499,14.978-11.428,24.09-18.639,24.09c-7.287,0-14.252-9.339-18.713-24.557
		c-4.174,15.854-11.214,26.262-19.271,26.262c-14.356,0-24.434-29.111-24.434-62.844c0-33.736,10.078-62.847,24.434-62.847
		c7.285,0,14.25,9.342,18.713,24.557C56.12,18.033,63.16,7.625,71.218,7.625c7.211,0,14.14,9.11,18.639,24.089
		C94.354,16.735,101.283,7.625,108.496,7.625z"/>
	<path style="fill:#6C6A39;" d="M108.506,7.666c14.306,0,24.385,29.066,24.385,62.806c0,33.739-10.079,62.805-24.385,62.805
		c-7.23,0-14.159-9.161-18.644-24.184c-4.487,15.022-11.416,24.184-18.645,24.184c-7.306,0-14.271-9.392-18.721-24.656
		c-4.167,15.911-11.212,26.362-19.274,26.362c-14.304,0-24.382-29.067-24.382-62.804c0-33.74,10.078-62.807,24.382-62.807
		c7.305,0,14.271,9.394,18.722,24.657C56.11,18.117,63.155,7.666,71.218,7.666c7.229,0,14.157,9.16,18.645,24.183
		C94.347,16.826,101.275,7.666,108.506,7.666z"/>
	<path style="fill:#6D6A38;" d="M108.516,7.706c14.254,0,24.334,29.021,24.334,62.766c0,33.743-10.08,62.764-24.334,62.764
		c-7.247,0-14.177-9.212-18.648-24.277c-4.475,15.065-11.403,24.277-18.649,24.277c-7.324,0-14.291-9.442-18.728-24.755
		c-4.161,15.967-11.21,26.461-19.277,26.461c-14.253,0-24.332-29.021-24.332-62.763c0-33.743,10.078-62.766,24.332-62.766
		c7.323,0,14.29,9.445,18.729,24.756C56.102,18.201,63.15,7.706,71.218,7.706c7.246,0,14.175,9.21,18.649,24.276
		C94.339,16.916,101.269,7.706,108.516,7.706z"/>
	<path style="fill:#6D6B38;" d="M108.526,7.747c14.202,0,24.282,28.977,24.282,62.725c0,33.747-10.08,62.723-24.282,62.723
		c-7.266,0-14.194-9.262-18.654-24.371c-4.462,15.109-11.391,24.371-18.654,24.371c-7.342,0-14.31-9.494-18.735-24.854
		c-4.154,16.024-11.208,26.562-19.279,26.562c-14.202,0-24.281-28.978-24.281-62.723c0-33.747,10.079-62.725,24.281-62.725
		c7.341,0,14.309,9.497,18.735,24.855c4.154-16.024,11.207-26.563,19.28-26.563c7.264,0,14.192,9.26,18.654,24.37
		C94.332,17.007,101.261,7.747,108.526,7.747z"/>
	<path style="fill:#6E6B37;" d="M108.536,7.787c14.151,0,24.231,28.933,24.231,62.684s-10.08,62.683-24.231,62.683
		c-7.283,0-14.212-9.313-18.659-24.466c-4.45,15.153-11.377,24.466-18.659,24.466c-7.361,0-14.33-9.547-18.743-24.954
		c-4.148,16.08-11.206,26.66-19.282,26.66c-14.151,0-24.23-28.933-24.23-62.682c0-33.75,10.08-62.684,24.23-62.684
		c7.359,0,14.328,9.549,18.742,24.955C56.083,18.369,63.14,7.787,71.218,7.787c7.282,0,14.208,9.31,18.659,24.464
		C94.324,17.097,101.253,7.787,108.536,7.787z"/>
	<path style="fill:#6E6C37;" d="M108.546,7.827c14.1,0,24.181,28.889,24.181,62.644s-10.081,62.642-24.181,62.642
		c-7.301,0-14.229-9.361-18.664-24.56c-4.438,15.198-11.364,24.56-18.664,24.56c-7.379,0-14.349-9.599-18.75-25.054
		c-4.142,16.137-11.204,26.761-19.286,26.761c-14.099,0-24.179-28.889-24.179-62.641c0-33.755,10.08-62.644,24.179-62.644
		c7.379,0,14.349,9.601,18.75,25.054C56.074,18.453,63.136,7.827,71.218,7.827c7.299,0,14.226,9.36,18.664,24.558
		C94.316,17.187,101.245,7.827,108.546,7.827z"/>
	<path style="fill:#6F6C36;" d="M108.556,7.867c14.049,0,24.13,28.844,24.13,62.604c0,33.759-10.081,62.602-24.13,62.602
		c-7.318,0-14.246-9.412-18.668-24.653c-4.426,15.241-11.353,24.653-18.669,24.653c-7.397,0-14.368-9.649-18.757-25.152
		c-4.135,16.192-11.202,26.86-19.289,26.86c-14.048,0-24.128-28.845-24.128-62.601c0-33.759,10.081-62.603,24.128-62.603
		c7.397,0,14.367,9.652,18.757,25.153C56.065,18.537,63.131,7.867,71.218,7.867c7.317,0,14.244,9.41,18.669,24.652
		C94.31,17.277,101.237,7.867,108.556,7.867z"/>
	<path style="fill:#6F6D36;" d="M108.565,7.908c13.998,0,24.08,28.8,24.08,62.563c0,33.763-10.082,62.561-24.08,62.561
		c-7.335,0-14.264-9.461-18.674-24.746c-4.411,15.285-11.339,24.746-18.673,24.746c-7.417,0-14.388-9.701-18.765-25.251
		c-4.129,16.248-11.2,26.96-19.291,26.96c-13.996,0-24.078-28.8-24.078-62.561c0-33.763,10.082-62.563,24.078-62.563
		c7.415,0,14.386,9.704,18.764,25.253c4.128-16.25,11.199-26.962,19.292-26.962c7.334,0,14.262,9.459,18.673,24.746
		C94.302,17.367,101.23,7.908,108.565,7.908z"/>
	<path style="fill:#706D35;" d="M108.576,7.948c13.945,0,24.028,28.755,24.028,62.522s-10.083,62.521-24.028,62.521
		c-7.354,0-14.281-9.512-18.679-24.841c-4.399,15.329-11.327,24.841-18.679,24.841c-7.435,0-14.407-9.754-18.771-25.352
		c-4.123,16.305-11.198,27.06-19.294,27.06c-13.946,0-24.027-28.755-24.027-62.52c0-33.766,10.082-62.521,24.027-62.521
		c7.434,0,14.406,9.755,18.771,25.352C56.046,18.705,63.121,7.948,71.218,7.948c7.352,0,14.28,9.51,18.679,24.839
		C94.295,17.458,101.223,7.948,108.576,7.948z"/>
	<path style="fill:#706E35;" d="M108.586,7.988c13.895,0,23.978,28.711,23.978,62.482c0,33.77-10.083,62.48-23.978,62.48
		c-7.371,0-14.299-9.562-18.684-24.935c-4.387,15.373-11.314,24.935-18.684,24.935c-7.453,0-14.426-9.806-18.778-25.45
		c-4.116,16.36-11.196,27.159-19.297,27.159c-13.894,0-23.976-28.711-23.976-62.479c0-33.77,10.082-62.48,23.976-62.48
		c7.453,0,14.426,9.807,18.779,25.451C56.037,18.789,63.116,7.988,71.218,7.988c7.37,0,14.297,9.56,18.684,24.933
		C94.287,17.548,101.215,7.988,108.586,7.988z"/>
	<path style="fill:#716E34;" d="M108.596,8.029c13.844,0,23.927,28.667,23.927,62.441s-10.083,62.439-23.927,62.439
		c-7.389,0-14.315-9.611-18.688-25.028c-4.374,15.417-11.302,25.028-18.688,25.028c-7.472,0-14.446-9.856-18.786-25.55
		c-4.109,16.417-11.193,27.259-19.3,27.259c-13.842,0-23.925-28.666-23.925-62.438c0-33.774,10.083-62.441,23.925-62.441
		c7.471,0,14.445,9.859,18.786,25.551c4.109-16.418,11.192-27.262,19.3-27.262c7.387,0,14.314,9.61,18.688,25.027
		C94.28,17.639,101.207,8.029,108.596,8.029z"/>
	<path style="fill:#716F33;" d="M108.606,8.069c13.791,0,23.876,28.622,23.876,62.4s-10.085,62.398-23.876,62.398
		c-7.407,0-14.334-9.661-18.694-25.122c-4.362,15.461-11.288,25.122-18.693,25.122c-7.49,0-14.465-9.908-18.793-25.649
		c-4.104,16.474-11.191,27.359-19.303,27.359c-13.791,0-23.875-28.622-23.875-62.397c0-33.778,10.084-62.4,23.875-62.4
		c7.489,0,14.464,9.911,18.793,25.65C56.019,18.957,63.107,8.069,71.219,8.069c7.405,0,14.331,9.659,18.693,25.121
		C94.272,17.729,101.199,8.069,108.606,8.069z"/>
	<path style="fill:#726F33;" d="M108.616,8.11c13.74,0,23.825,28.577,23.825,62.36c0,33.782-10.085,62.357-23.825,62.357
		c-7.424,0-14.352-9.711-18.698-25.216c-4.351,15.505-11.276,25.216-18.699,25.216c-7.509,0-14.484-9.96-18.8-25.748
		c-4.097,16.53-11.19,27.459-19.306,27.459c-13.74,0-23.824-28.578-23.824-62.357c0-33.782,10.084-62.359,23.824-62.359
		c7.507,0,14.483,9.963,18.8,25.75C56.009,19.041,63.102,8.11,71.219,8.11c7.423,0,14.349,9.709,18.699,25.214
		C94.265,17.819,101.192,8.11,108.616,8.11z"/>
	<path style="fill:#737032;" d="M108.626,8.15c13.689,0,23.774,28.532,23.774,62.319c0,33.786-10.085,62.317-23.774,62.317
		c-7.441,0-14.368-9.761-18.703-25.309c-4.338,15.548-11.264,25.309-18.704,25.309c-7.527,0-14.504-10.012-18.807-25.848
		c-4.09,16.587-11.188,27.56-19.309,27.56c-13.688,0-23.772-28.533-23.772-62.317c0-33.785,10.084-62.318,23.772-62.318
		c7.527,0,14.503,10.014,18.808,25.849C56,19.124,63.097,8.15,71.219,8.15c7.44,0,14.366,9.759,18.704,25.308
		C94.258,17.91,101.185,8.15,108.626,8.15z"/>
	<path style="fill:#737032;" d="M108.636,8.19c13.638,0,23.724,28.488,23.724,62.279c0,33.79-10.086,62.277-23.724,62.277
		c-7.459,0-14.386-9.811-18.708-25.403c-4.325,15.593-11.251,25.403-18.709,25.403c-7.545,0-14.523-10.064-18.814-25.947
		c-4.084,16.643-11.186,27.658-19.312,27.658c-13.637,0-23.722-28.488-23.722-62.275c0-33.79,10.085-62.278,23.722-62.278
		c7.545,0,14.523,10.066,18.815,25.948C55.991,19.208,63.092,8.19,71.219,8.19c7.458,0,14.384,9.81,18.709,25.402
		C94.25,18,101.177,8.19,108.636,8.19z"/>
	<path style="fill:#747131;" d="M108.646,8.23c13.587,0,23.673,28.444,23.673,62.238c0,33.794-10.086,62.236-23.673,62.236
		c-7.477,0-14.402-9.861-18.713-25.497c-4.313,15.636-11.238,25.497-18.713,25.497c-7.564,0-14.543-10.116-18.822-26.047
		c-4.077,16.699-11.184,27.759-19.314,27.759c-13.586,0-23.671-28.444-23.671-62.235c0-33.793,10.085-62.237,23.671-62.237
		c7.563,0,14.542,10.117,18.822,26.047C55.982,19.292,63.087,8.23,71.219,8.23c7.475,0,14.401,9.859,18.713,25.496
		C94.243,18.09,101.169,8.23,108.646,8.23z"/>
	<path style="fill:#747231;" d="M108.656,8.271c13.535,0,23.622,28.399,23.622,62.198c0,33.797-10.087,62.195-23.622,62.195
		c-7.495,0-14.421-9.911-18.719-25.591c-4.3,15.68-11.225,25.591-18.718,25.591c-7.583,0-14.563-10.167-18.829-26.146
		c-4.071,16.755-11.182,27.857-19.317,27.857c-13.534,0-23.62-28.399-23.62-62.194c0-33.797,10.086-62.197,23.62-62.197
		c7.582,0,14.562,10.169,18.83,26.146c4.07-16.756,11.18-27.86,19.317-27.86c7.494,0,14.418,9.909,18.718,25.589
		C94.235,18.18,101.161,8.271,108.656,8.271z"/>
	<path style="fill:#757230;" d="M108.666,8.312c13.484,0,23.571,28.355,23.571,62.157c0,33.801-10.087,62.155-23.571,62.155
		c-7.513,0-14.438-9.96-18.724-25.685c-4.287,15.725-11.212,25.685-18.723,25.685c-7.601,0-14.582-10.219-18.836-26.245
		c-4.065,16.812-11.18,27.958-19.32,27.958c-13.483,0-23.569-28.355-23.569-62.154c0-33.801,10.086-62.156,23.569-62.156
		c7.6,0,14.581,10.221,18.837,26.246c4.063-16.812,11.178-27.96,19.319-27.96c7.511,0,14.436,9.959,18.723,25.683
		C94.228,18.271,101.153,8.312,108.666,8.312z"/>
	<path style="fill:#75732F;" d="M108.676,8.352c13.434,0,23.521,28.31,23.521,62.116c0,33.805-10.087,62.115-23.521,62.115
		c-7.529,0-14.455-10.011-18.728-25.778c-4.275,15.768-11.2,25.778-18.729,25.778c-7.62,0-14.602-10.271-18.844-26.345
		c-4.058,16.867-11.177,28.057-19.323,28.057c-13.432,0-23.519-28.311-23.519-62.112c0-33.805,10.087-62.116,23.519-62.116
		c7.619,0,14.6,10.273,18.844,26.345c4.058-16.868,11.177-28.06,19.323-28.06c7.528,0,14.453,10.008,18.729,25.777
		C94.221,18.36,101.146,8.352,108.676,8.352z"/>
	<path style="fill:#76732F;" d="M108.687,8.393c13.381,0,23.469,28.266,23.469,62.075s-10.088,62.074-23.469,62.074
		c-7.548,0-14.474-10.062-18.733-25.872c-4.263,15.811-11.188,25.872-18.734,25.872c-7.638,0-14.621-10.323-18.851-26.444
		c-4.051,16.924-11.175,28.158-19.325,28.158c-13.38,0-23.468-28.267-23.468-62.073c0-33.809,10.087-62.075,23.468-62.075
		c7.637,0,14.62,10.325,18.851,26.444C55.945,19.627,63.068,8.393,71.219,8.393c7.546,0,14.471,10.059,18.734,25.871
		C94.213,18.451,101.139,8.393,108.687,8.393z"/>
	<path style="fill:#76742E;" d="M108.696,8.433c13.33,0,23.418,28.222,23.418,62.035c0,33.813-10.088,62.033-23.418,62.033
		c-7.565,0-14.491-10.11-18.738-25.966c-4.25,15.855-11.175,25.966-18.738,25.966c-7.656,0-14.64-10.374-18.858-26.543
		c-4.046,16.979-11.174,28.257-19.329,28.257c-13.329,0-23.417-28.222-23.417-62.032c0-33.813,10.088-62.034,23.417-62.034
		c7.656,0,14.639,10.376,18.858,26.543C55.936,19.711,63.063,8.433,71.22,8.433c7.563,0,14.488,10.109,18.738,25.964
		C94.205,18.542,101.131,8.433,108.696,8.433z"/>
	<path style="fill:#77742D;" d="M108.706,8.473c13.278,0,23.368,28.177,23.368,61.994c0,33.817-10.09,61.993-23.368,61.993
		c-7.583,0-14.508-10.16-18.743-26.06c-4.237,15.899-11.162,26.06-18.743,26.06c-7.675,0-14.659-10.426-18.865-26.643
		c-4.039,17.036-11.172,28.357-19.332,28.357c-13.278,0-23.366-28.178-23.366-61.992c0-33.816,10.088-61.993,23.366-61.993
		c7.674,0,14.659,10.428,18.866,26.643C55.927,19.795,63.059,8.473,71.22,8.473c7.581,0,14.506,10.159,18.743,26.058
		C94.198,18.632,101.123,8.473,108.706,8.473z"/>
	<path style="fill:#77752D;" d="M108.716,8.514c13.228,0,23.317,28.132,23.317,61.954c0,33.821-10.09,61.952-23.317,61.952
		c-7.601,0-14.525-10.21-18.748-26.153c-4.225,15.943-11.148,26.153-18.748,26.153c-7.693,0-14.679-10.478-18.873-26.741
		c-4.032,17.092-11.169,28.456-19.334,28.456c-13.226,0-23.315-28.133-23.315-61.95c0-33.821,10.089-61.954,23.315-61.954
		c7.693,0,14.678,10.48,18.873,26.742C55.917,19.879,63.054,8.514,71.22,8.514c7.6,0,14.523,10.208,18.748,26.152
		C94.19,18.722,101.115,8.514,108.716,8.514z"/>
	<path style="fill:#78752C;" d="M108.726,8.554c13.177,0,23.267,28.088,23.267,61.913c0,33.824-10.09,61.911-23.267,61.911
		c-7.618,0-14.542-10.26-18.753-26.247c-4.213,15.987-11.136,26.247-18.752,26.247c-7.712,0-14.699-10.529-18.88-26.841
		c-4.026,17.148-11.167,28.557-19.337,28.557c-13.175,0-23.265-28.088-23.265-61.91c0-33.824,10.09-61.913,23.265-61.913
		c7.711,0,14.697,10.532,18.88,26.842C55.908,19.963,63.049,8.554,71.22,8.554c7.617,0,14.54,10.258,18.752,26.245
		C94.184,18.812,101.107,8.554,108.726,8.554z"/>
	<path style="fill:#78762B;" d="M108.736,8.594c13.124,0,23.215,28.044,23.215,61.873c0,33.828-10.091,61.871-23.215,61.871
		c-7.637,0-14.561-10.311-18.758-26.341c-4.201,16.03-11.124,26.341-18.759,26.341c-7.73,0-14.717-10.581-18.887-26.94
		c-4.02,17.205-11.166,28.655-19.34,28.655c-13.124,0-23.214-28.043-23.214-61.869c0-33.828,10.09-61.872,23.214-61.872
		c7.729,0,14.717,10.584,18.888,26.941C55.899,20.047,63.044,8.594,71.22,8.594c7.635,0,14.558,10.309,18.759,26.339
		C94.176,18.903,101.1,8.594,108.736,8.594z"/>
	<path style="fill:#79762B;" d="M108.746,8.634c13.073,0,23.164,28,23.164,61.833c0,33.832-10.091,61.83-23.164,61.83
		c-7.653,0-14.578-10.36-18.763-26.435c-4.188,16.074-11.111,26.435-18.764,26.435c-7.749,0-14.737-10.633-18.894-27.04
		c-4.013,17.262-11.163,28.756-19.343,28.756c-13.072,0-23.163-27.999-23.163-61.829c0-33.832,10.091-61.832,23.163-61.832
		c7.748,0,14.736,10.636,18.895,27.041C55.89,20.131,63.04,8.634,71.22,8.634c7.652,0,14.575,10.358,18.764,26.433
		C94.168,18.993,101.093,8.634,108.746,8.634z"/>
	<path style="fill:#79772A;" d="M108.756,8.675c13.022,0,23.114,27.955,23.114,61.792s-10.092,61.79-23.114,61.79
		c-7.671,0-14.595-10.41-18.768-26.528c-4.176,16.118-11.099,26.528-18.768,26.528c-7.768,0-14.756-10.685-18.902-27.139
		c-4.006,17.317-11.161,28.855-19.345,28.855c-13.021,0-23.113-27.955-23.113-61.789c0-33.835,10.092-61.791,23.113-61.791
		c7.766,0,14.755,10.688,18.901,27.14C55.88,20.215,63.035,8.675,71.22,8.675c7.669,0,14.592,10.408,18.768,26.527
		C94.161,19.083,101.085,8.675,108.756,8.675z"/>
	<path style="fill:#7A7729;" d="M108.767,8.715c12.97,0,23.063,27.91,23.063,61.751c0,33.84-10.093,61.749-23.063,61.749
		c-7.689,0-14.613-10.46-18.773-26.622c-4.162,16.162-11.085,26.622-18.773,26.622c-7.786,0-14.776-10.736-18.909-27.238
		c-4,17.374-11.159,28.956-19.349,28.956c-12.969,0-23.062-27.911-23.062-61.749c0-33.839,10.092-61.75,23.062-61.75
		c7.785,0,14.775,10.739,18.909,27.24c4-17.375,11.158-28.958,19.349-28.958c7.688,0,14.611,10.458,18.773,26.621
		C94.153,19.173,101.077,8.715,108.767,8.715z"/>
	<path style="fill:#7A7829;" d="M108.776,8.756c12.919,0,23.012,27.866,23.012,61.71c0,33.845-10.093,61.708-23.012,61.708
		c-7.706,0-14.631-10.51-18.778-26.716c-4.149,16.206-11.073,26.716-18.777,26.716c-7.805,0-14.796-10.788-18.916-27.337
		c-3.994,17.43-11.157,29.055-19.352,29.055c-12.918,0-23.011-27.866-23.011-61.707c0-33.844,10.093-61.71,23.011-61.71
		c7.803,0,14.795,10.791,18.917,27.338c3.993-17.43,11.156-29.057,19.352-29.057c7.704,0,14.628,10.508,18.777,26.714
		C94.146,19.264,101.07,8.756,108.776,8.756z"/>
	<path style="fill:#7B7828;" d="M108.786,8.796c12.868,0,22.962,27.821,22.962,61.669c0,33.848-10.094,61.667-22.962,61.667
		c-7.724,0-14.647-10.56-18.782-26.809c-4.138,16.249-11.061,26.809-18.783,26.809c-7.823,0-14.815-10.84-18.923-27.437
		c-3.987,17.486-11.156,29.155-19.354,29.155c-12.867,0-22.96-27.822-22.96-61.667c0-33.847,10.093-61.669,22.96-61.669
		c7.822,0,14.813,10.842,18.923,27.438C55.853,20.466,63.021,8.796,71.221,8.796c7.723,0,14.646,10.558,18.783,26.808
		C94.139,19.354,101.063,8.796,108.786,8.796z"/>
	<path style="fill:#7B7927;" d="M108.796,8.836c12.816,0,22.91,27.776,22.91,61.629c0,33.852-10.094,61.626-22.91,61.626
		c-7.741,0-14.665-10.608-18.787-26.902c-4.126,16.294-11.048,26.902-18.789,26.902c-7.841,0-14.834-10.891-18.93-27.535
		c-3.981,17.542-11.153,29.254-19.357,29.254c-12.816,0-22.909-27.777-22.909-61.625c0-33.852,10.093-61.629,22.909-61.629
		c7.84,0,14.833,10.895,18.931,27.537C55.844,20.55,63.016,8.836,71.22,8.836c7.741,0,14.663,10.608,18.789,26.902
		C94.131,19.444,101.055,8.836,108.796,8.836z"/>
	<path style="fill:#7C7A26;" d="M108.806,8.877c12.766,0,22.86,27.732,22.86,61.588c0,33.856-10.095,61.586-22.86,61.586
		c-7.759,0-14.683-10.66-18.792-26.997c-4.113,16.337-11.035,26.997-18.793,26.997c-7.86,0-14.854-10.943-18.938-27.636
		c-3.974,17.599-11.151,29.354-19.36,29.354c-12.764,0-22.858-27.732-22.858-61.585c0-33.855,10.094-61.588,22.858-61.588
		c7.859,0,14.853,10.946,18.938,27.637c3.974-17.6,11.15-29.357,19.36-29.357c7.758,0,14.68,10.658,18.793,26.996
		C94.123,19.535,101.047,8.877,108.806,8.877z"/>
	<path style="fill:#7C7A26;" d="M108.816,8.917c12.714,0,22.809,27.688,22.809,61.547c0,33.859-10.095,61.546-22.809,61.546
		c-7.777,0-14.7-10.709-18.798-27.091c-4.101,16.382-11.022,27.091-18.798,27.091c-7.878,0-14.873-10.995-18.945-27.735
		c-3.968,17.655-11.149,29.455-19.363,29.455c-12.712,0-22.807-27.688-22.807-61.545c0-33.859,10.095-61.547,22.807-61.547
		c7.877,0,14.873,10.998,18.946,27.735C55.825,20.718,63.006,8.917,71.221,8.917c7.775,0,14.697,10.707,18.798,27.089
		C94.116,19.625,101.039,8.917,108.816,8.917z"/>
	<path style="fill:#7D7B25;" d="M108.826,8.958c12.662,0,22.758,27.643,22.758,61.507c0,33.863-10.096,61.505-22.758,61.505
		c-7.795,0-14.718-10.759-18.803-27.185c-4.088,16.426-11.01,27.185-18.803,27.185c-7.897,0-14.893-11.047-18.952-27.834
		c-3.962,17.712-11.147,29.554-19.366,29.554c-12.661,0-22.756-27.644-22.756-61.504c0-33.863,10.095-61.507,22.756-61.507
		c7.896,0,14.892,11.05,18.953,27.835c3.96-17.712,11.146-29.557,19.365-29.557c7.793,0,14.715,10.757,18.803,27.183
		C94.108,19.715,101.031,8.958,108.826,8.958z"/>
	<path style="fill:#7D7B24;" d="M108.836,8.998c12.611,0,22.708,27.599,22.708,61.466s-10.097,61.465-22.708,61.465
		c-7.812,0-14.734-10.81-18.807-27.279c-4.076,16.47-10.997,27.279-18.808,27.279c-7.916,0-14.912-11.099-18.959-27.935
		c-3.956,17.769-11.146,29.654-19.369,29.654c-12.61,0-22.706-27.599-22.706-61.464c0-33.867,10.096-61.466,22.706-61.466
		c7.914,0,14.911,11.101,18.959,27.934C55.807,20.886,62.996,8.998,71.221,8.998c7.811,0,14.732,10.807,18.808,27.277
		C94.102,19.805,101.024,8.998,108.836,8.998z"/>
	<path style="fill:#7E7C23;" d="M108.847,9.038c12.56,0,22.655,27.555,22.655,61.426s-10.096,61.424-22.655,61.424
		c-7.83,0-14.753-10.859-18.813-27.372c-4.063,16.513-10.983,27.372-18.813,27.372c-7.933,0-14.931-11.15-18.966-28.033
		c-3.949,17.824-11.143,29.754-19.372,29.754c-12.559,0-22.655-27.555-22.655-61.423c0-33.871,10.096-61.426,22.655-61.426
		c7.933,0,14.93,11.153,18.967,28.034C55.798,20.97,62.992,9.038,71.221,9.038c7.829,0,14.75,10.858,18.813,27.371
		C94.094,19.896,101.017,9.038,108.847,9.038z"/>
	<path style="fill:#7E7C22;" d="M108.856,9.079c12.508,0,22.605,27.51,22.605,61.385c0,33.875-10.098,61.384-22.605,61.384
		c-7.848,0-14.77-10.909-18.817-27.466c-4.051,16.557-10.972,27.466-18.818,27.466c-7.952,0-14.951-11.202-18.974-28.133
		c-3.943,17.881-11.142,29.854-19.375,29.854c-12.507,0-22.604-27.51-22.604-61.382c0-33.875,10.097-61.385,22.604-61.385
		c7.952,0,14.95,11.205,18.975,28.133c3.941-17.88,11.14-29.855,19.374-29.855c7.846,0,14.767,10.907,18.818,27.464
		C94.087,19.986,101.009,9.079,108.856,9.079z"/>
	<path style="fill:#7F7D21;" d="M108.866,9.119c-7.865,0-14.787,10.957-18.822,27.558C86.006,20.076,79.085,9.119,71.221,9.119
		c-8.239,0-15.442,12.019-19.377,29.956c-4.012-16.976-11.012-28.232-18.981-28.232c-12.456,0-22.553,27.466-22.553,61.344
		c0,33.876,10.097,61.342,22.553,61.342c8.238,0,15.441-12.017,19.377-29.953c4.011,16.978,11.01,28.231,18.981,28.231
		c7.864,0,14.785-10.959,18.823-27.56c4.035,16.601,10.957,27.56,18.822,27.56c12.457,0,22.555-27.464,22.555-61.343
		C131.421,36.584,121.323,9.119,108.866,9.119z"/>
</g>
</svg>
